<svg version="1.1" preserveAspectRatio="none" xmlns="http://www.w3.org/2000/svg" width="500" height="500" viewBox="0 0 500 500"><rect width="100%" height="100%" fill="#5CB8FF" fill-opacity="1"/><svg viewBox="-5.3111 305.066 634.0189 345.0685" width="333" height="181.2372004998589" x="83.5px" y="159.3814px" xmlns="http://www.w3.org/2000/svg" xmlns:xlink="http://www.w3.org/1999/xlink" preserveAspectRatio="none"><defs></defs><style>.aLgOaV3zRcolors-3 {fill:#58FF75;fill-opacity:1;}.aLgOaV3zRcolors-4 {fill:#3A9AF9;fill-opacity:1;}.aLgOaV3zRcolors-5 {fill:#3288DD;fill-opacity:1;}.aLgOaV3zRcolors-6 {fill:#00B0BE;fill-opacity:1;}.aLgOaV3zRcolors-7 {fill:#89FF9D;fill-opacity:1;}.companyName {fill:#FFFFFF;fill-opacity:1;}.icon1 {fill:#005477;fill-opacity:1;}.icon2 {fill:#FFFFFF;fill-opacity:1;}.icon3 {fill:#007B8B;fill-opacity:1;}.icon3-str {stroke:#007B8B;stroke-opacity:1;}.text {fill:#FFFFFF;fill-opacity:1;}</style><g opacity="1" transform="rotate(0 -5.3111 626.1345)">
<svg width="634.0189" height="24" x="-5.3111" y="626.1345" version="1.1" preserveAspectRatio="none" viewBox="1.12 -30.56 1009.04 38.2">
  <g transform="matrix(1 0 0 1 0 0)" class="text"><path id="id-6izo4zJp50" d="M15.20-15.64L17.04-15.64L6.96 7.52L5 7.52L8.36-0.16L1.12-15.64L3.24-15.64L9.32-2.32L15.20-15.64Z M23.96-7.92Q23.96-10.16 25.06-12.06Q26.16-13.96 28.08-15.06Q30-16.16 32.32-16.16L32.32-16.16Q34.64-16.16 36.56-15.06Q38.48-13.96 39.56-12.06Q40.64-10.16 40.64-7.92L40.64-7.92Q40.64-5.64 39.54-3.76Q38.44-1.88 36.54-0.78Q34.64 0.32 32.28 0.32L32.28 0.32Q29.92 0.32 28.02-0.74Q26.12-1.80 25.04-3.68Q23.96-5.56 23.96-7.92L23.96-7.92ZM25.84-7.88Q25.84-6.08 26.70-4.56Q27.56-3.04 29.04-2.16Q30.52-1.28 32.28-1.28L32.28-1.28Q34.04-1.28 35.52-2.16Q37-3.04 37.86-4.56Q38.72-6.08 38.72-7.88L38.72-7.88Q38.72-9.68 37.86-11.22Q37-12.76 35.52-13.64Q34.04-14.52 32.28-14.52L32.28-14.52Q30.48-14.52 29-13.58Q27.52-12.64 26.68-11.12Q25.84-9.60 25.84-7.88L25.84-7.88Z M61.60-15.64L63.48-15.64L63.48 0L61.80 0L61.68-3.32Q60.92-1.68 59.08-0.62Q57.24 0.44 55.16 0.44L55.16 0.44Q53.00 0.44 51.66-0.86Q50.32-2.16 50.24-4.24L50.24-4.24L50.24-15.64L52.12-15.64L52.12-4.80Q52.20-3.20 53.12-2.24Q54.04-1.28 55.80-1.20L55.80-1.20Q57.32-1.20 58.66-2Q60.00-2.80 60.80-4.20Q61.60-5.60 61.60-7.32L61.60-7.32L61.60-15.64Z M76.40-11.92Q77.24-13.80 79.16-14.92Q81.08-16.04 83-16.08L83-16.08L82.92-14.24Q81.16-14.24 79.68-13.46Q78.20-12.68 77.34-11.30Q76.48-9.92 76.48-8.28L76.48-8.28L76.48 0L74.60 0L74.60-15.64L76.24-15.64L76.40-11.92Z M122.32-15.64L124-15.64L124 0.24Q124 3.44 121.90 5.54Q119.80 7.64 115.52 7.64L115.52 7.64Q113.48 7.64 111.76 6.90Q110.04 6.16 108.24 4.44L108.24 4.44L109.36 3.16Q110.96 4.72 112.44 5.34Q113.92 5.96 115.44 5.96L115.44 5.96Q118.88 5.96 120.44 4.40Q122 2.84 122.08 0.20L122.08 0.20L122.12-3.48Q121.08-1.76 119.18-0.72Q117.28 0.32 115.04 0.32L115.04 0.32Q112.84 0.32 111.02-0.76Q109.20-1.84 108.12-3.72Q107.04-5.60 107.04-7.88L107.04-7.88Q107.04-10.24 108.16-12.12Q109.28-14 111.20-15.06Q113.12-16.12 115.44-16.12L115.44-16.12Q117.48-16.12 119.36-15.10Q121.24-14.08 122.16-12.40L122.16-12.40L122.32-15.64ZM115.52-1.28Q117.24-1.28 118.70-2.06Q120.16-2.84 121.08-4.16Q122-5.48 122.12-7L122.12-7L122.12-9.32Q121.64-11.60 119.78-13.06Q117.92-14.52 115.52-14.52L115.52-14.52Q113.68-14.52 112.16-13.68Q110.64-12.84 109.78-11.34Q108.92-9.84 108.92-7.92L108.92-7.92Q108.92-6.12 109.80-4.60Q110.68-3.08 112.20-2.18Q113.72-1.28 115.52-1.28L115.52-1.28Z M133.60-7.92Q133.60-10.16 134.70-12.06Q135.80-13.96 137.72-15.06Q139.64-16.16 141.96-16.16L141.96-16.16Q144.28-16.16 146.20-15.06Q148.12-13.96 149.20-12.06Q150.28-10.16 150.28-7.92L150.28-7.92Q150.28-5.64 149.18-3.76Q148.08-1.88 146.18-0.78Q144.28 0.32 141.92 0.32L141.92 0.32Q139.56 0.32 137.66-0.74Q135.76-1.80 134.68-3.68Q133.60-5.56 133.60-7.92L133.60-7.92ZM135.48-7.88Q135.48-6.08 136.34-4.56Q137.20-3.04 138.68-2.16Q140.16-1.28 141.92-1.28L141.92-1.28Q143.68-1.28 145.16-2.16Q146.64-3.04 147.50-4.56Q148.36-6.08 148.36-7.88L148.36-7.88Q148.36-9.68 147.50-11.22Q146.64-12.76 145.16-13.64Q143.68-14.52 141.92-14.52L141.92-14.52Q140.12-14.52 138.64-13.58Q137.16-12.64 136.32-11.12Q135.48-9.60 135.48-7.88L135.48-7.88Z M158.44-8.88L165.84-8.88L165.84-7.20L158.44-7.20L158.44-8.88Z M177.52-22.52L179.44-22.52L179.44-15.44L184.28-15.44L184.28-13.92L179.44-13.92L179.44 0L177.52 0L177.52-13.92L174.20-13.92L174.20-15.44L177.52-15.44L177.52-22.52Z M191.44-7.92Q191.44-10.16 192.54-12.06Q193.64-13.96 195.56-15.06Q197.48-16.16 199.80-16.16L199.80-16.16Q202.12-16.16 204.04-15.06Q205.96-13.96 207.04-12.06Q208.12-10.16 208.12-7.92L208.12-7.92Q208.12-5.64 207.02-3.76Q205.92-1.88 204.02-0.78Q202.12 0.32 199.76 0.32L199.76 0.32Q197.40 0.32 195.50-0.74Q193.60-1.80 192.52-3.68Q191.44-5.56 191.44-7.92L191.44-7.92ZM193.32-7.88Q193.32-6.08 194.18-4.56Q195.04-3.04 196.52-2.16Q198-1.28 199.76-1.28L199.76-1.28Q201.52-1.28 203-2.16Q204.48-3.04 205.34-4.56Q206.20-6.08 206.20-7.88L206.20-7.88Q206.20-9.68 205.34-11.22Q204.48-12.76 203-13.64Q201.52-14.52 199.76-14.52L199.76-14.52Q197.96-14.52 196.48-13.58Q195-12.64 194.16-11.12Q193.32-9.60 193.32-7.88L193.32-7.88Z M247.48-30.40L249.36-30.40L249.36 0L247.44 0L247.44-3.24Q246.36-1.64 244.48-0.66Q242.60 0.32 240.40 0.32L240.40 0.32Q238.20 0.32 236.38-0.74Q234.56-1.80 233.52-3.70Q232.48-5.60 232.48-7.92L232.48-7.92Q232.48-10.36 233.56-12.24Q234.64-14.12 236.48-15.12Q238.32-16.12 240.60-16.12L240.60-16.12Q242.64-16.12 244.54-15.12Q246.44-14.12 247.48-12.48L247.48-12.48L247.48-30.40ZM240.88-1.32Q243.56-1.32 245.40-3Q247.24-4.68 247.44-7.24L247.44-7.24L247.44-9.24Q247-11.52 245.14-13.04Q243.28-14.56 240.88-14.56L240.88-14.56Q239.08-14.56 237.60-13.72Q236.12-12.88 235.24-11.38Q234.36-9.88 234.36-7.96L234.36-7.96Q234.36-6.16 235.24-4.64Q236.12-3.12 237.62-2.22Q239.12-1.32 240.88-1.32L240.88-1.32Z M267.32-1.32Q269.84-1.32 271.88-3.04L271.88-3.04L272.84-1.68Q271.68-0.76 270.22-0.22Q268.76 0.32 267.28 0.32L267.28 0.32Q264.88 0.32 262.98-0.76Q261.08-1.84 260.02-3.70Q258.96-5.56 258.96-7.88L258.96-7.88Q258.96-10.12 260.08-12.02Q261.20-13.92 263.12-15.04Q265.04-16.16 267.32-16.16L267.32-16.16Q270.04-16.16 271.96-14.56Q273.88-12.96 274.76-10.24L274.76-10.24L261.40-5.08Q262.16-3.40 263.74-2.36Q265.32-1.32 267.32-1.32L267.32-1.32ZM267.20-14.56Q265.44-14.56 263.96-13.68Q262.48-12.80 261.64-11.30Q260.80-9.80 260.80-7.96L260.80-7.96Q260.80-7.12 260.96-6.48L260.96-6.48L272.48-11Q271.72-12.60 270.36-13.58Q269.00-14.56 267.20-14.56L267.20-14.56Z M287.64 0.32Q286.12 0.32 284.70-0.20Q283.28-0.72 282.40-1.80L282.40-1.80L283.28-3.04Q284.08-2.20 285.20-1.70Q286.32-1.20 287.52-1.20L287.52-1.20Q289.04-1.20 290.08-1.90Q291.12-2.60 291.12-4.08L291.12-4.08Q291.12-5.12 290.56-5.74Q290-6.36 289.28-6.66Q288.56-6.96 286.96-7.48L286.96-7.48Q285.08-8.12 284.06-9.10Q283.04-10.08 283.04-11.72L283.04-11.72Q283.04-13.64 284.38-14.82Q285.72-16 287.80-16L287.80-16Q290.68-16 292.48-14.24L292.48-14.24L291.64-12.92Q291.04-13.72 290.06-14.08Q289.08-14.44 288.08-14.48L288.08-14.48Q286.88-14.48 285.90-13.82Q284.92-13.16 284.92-11.96L284.92-11.96Q284.92-10.72 285.80-10.10Q286.68-9.48 288.48-8.84L288.48-8.84Q290.68-8.12 291.84-7.22Q293-6.32 293-4.48L293-4.48Q293-2.32 291.62-1Q290.24 0.32 287.64 0.32L287.64 0.32Z M304.24-22.52L306.16-22.52L306.16-15.44L311-15.44L311-13.92L306.16-13.92L306.16 0L304.24 0L304.24-13.92L300.92-13.92L300.92-15.44L304.24-15.44L304.24-22.52Z M319.68-15.64L321.56-15.64L321.56 0L319.68 0L319.68-15.64ZM319.28-21.40Q319.28-21.96 319.70-22.34Q320.12-22.72 320.68-22.72L320.68-22.72Q321.24-22.72 321.64-22.34Q322.04-21.96 322.04-21.40L322.04-21.40Q322.04-20.80 321.64-20.42Q321.24-20.04 320.68-20.04L320.68-20.04Q320.12-20.04 319.70-20.44Q319.28-20.84 319.28-21.40L319.28-21.40Z M341.08-16.08Q343.24-16.08 344.60-14.78Q345.96-13.48 346.04-11.40L346.04-11.40L346.04 0L344.12 0L344.12-10.88Q344.04-12.44 343.12-13.42Q342.20-14.40 340.48-14.44L340.48-14.44Q338.88-14.44 337.54-13.68Q336.20-12.92 335.38-11.54Q334.56-10.16 334.56-8.40L334.56-8.40L334.56 0L332.68 0L332.68-15.64L334.32-15.64L334.48-12.16Q335.24-13.96 337.06-15.02Q338.88-16.08 341.08-16.08L341.08-16.08Z M370.72-15.64L372.40-15.64L372.40 0L370.52 0L370.52-3.32Q369.60-1.80 367.72-0.74Q365.84 0.32 363.64 0.32L363.64 0.32Q361.40 0.32 359.58-0.70Q357.76-1.72 356.70-3.58Q355.64-5.44 355.64-7.84L355.64-7.84Q355.64-10.40 356.74-12.26Q357.84-14.12 359.78-15.12Q361.72-16.12 364.16-16.12L364.16-16.12Q366.08-16.12 367.84-15.04Q369.60-13.96 370.52-12.24L370.52-12.24L370.72-15.64ZM364.04-1.28Q366.68-1.28 368.52-2.92Q370.36-4.56 370.52-7.12L370.52-7.12L370.52-9.36Q370.04-11.56 368.20-13.04Q366.36-14.52 364-14.52L364-14.52Q362.20-14.52 360.72-13.70Q359.24-12.88 358.38-11.38Q357.52-9.88 357.52-7.92L357.52-7.92Q357.52-6.12 358.40-4.60Q359.28-3.08 360.78-2.18Q362.28-1.28 364.04-1.28L364.04-1.28Z M385.08-22.52L387.00-22.52L387.00-15.44L391.84-15.44L391.84-13.92L387.00-13.92L387.00 0L385.08 0L385.08-13.92L381.76-13.92L381.76-15.44L385.08-15.44L385.08-22.52Z M400.52-15.64L402.40-15.64L402.40 0L400.52 0L400.52-15.64ZM400.12-21.40Q400.12-21.96 400.54-22.34Q400.96-22.72 401.52-22.72L401.52-22.72Q402.08-22.72 402.48-22.34Q402.88-21.96 402.88-21.40L402.88-21.40Q402.88-20.80 402.48-20.42Q402.08-20.04 401.52-20.04L401.52-20.04Q400.96-20.04 400.54-20.44Q400.12-20.84 400.12-21.40L400.12-21.40Z M412.00-7.92Q412.00-10.16 413.10-12.06Q414.20-13.96 416.12-15.06Q418.04-16.16 420.36-16.16L420.36-16.16Q422.68-16.16 424.60-15.06Q426.52-13.96 427.60-12.06Q428.68-10.16 428.68-7.92L428.68-7.92Q428.68-5.64 427.58-3.76Q426.48-1.88 424.58-0.78Q422.68 0.32 420.32 0.32L420.32 0.32Q417.96 0.32 416.06-0.74Q414.16-1.80 413.08-3.68Q412.00-5.56 412.00-7.92L412.00-7.92ZM413.88-7.88Q413.88-6.08 414.74-4.56Q415.60-3.04 417.08-2.16Q418.56-1.28 420.32-1.28L420.32-1.28Q422.08-1.28 423.56-2.16Q425.04-3.04 425.90-4.56Q426.76-6.08 426.76-7.88L426.76-7.88Q426.76-9.68 425.90-11.22Q425.04-12.76 423.56-13.64Q422.08-14.52 420.32-14.52L420.32-14.52Q418.52-14.52 417.04-13.58Q415.56-12.64 414.72-11.12Q413.88-9.60 413.88-7.88L413.88-7.88Z M446.68-16.08Q448.84-16.08 450.20-14.78Q451.56-13.48 451.64-11.40L451.64-11.40L451.64 0L449.72 0L449.72-10.88Q449.64-12.44 448.72-13.42Q447.80-14.40 446.08-14.44L446.08-14.44Q444.48-14.44 443.14-13.68Q441.80-12.92 440.98-11.54Q440.16-10.16 440.16-8.40L440.16-8.40L440.16 0L438.28 0L438.28-15.64L439.92-15.64L440.08-12.16Q440.84-13.96 442.66-15.02Q444.48-16.08 446.68-16.08L446.68-16.08Z M480.08 0L480.08-13.88L477.36-13.88L477.36-15.60L480.08-15.60L480.08-23.48Q480.08-27.16 481.36-28.86Q482.64-30.56 485.24-30.56L485.24-30.56Q486.52-30.56 487.60-29.96L487.60-29.96L486.80-28.60Q486.28-29 485.40-29L485.40-29Q483.64-29 482.80-27.74Q481.96-26.48 481.96-23.52L481.96-23.52L481.96-15.60L487.20-15.60L487.20-13.88L481.96-13.88L481.96 0L480.08 0Z M493.88-7.92Q493.88-10.16 494.98-12.06Q496.08-13.96 498-15.06Q499.92-16.16 502.24-16.16L502.24-16.16Q504.56-16.16 506.48-15.06Q508.40-13.96 509.48-12.06Q510.56-10.16 510.56-7.92L510.56-7.92Q510.56-5.64 509.46-3.76Q508.36-1.88 506.46-0.78Q504.56 0.32 502.20 0.32L502.20 0.32Q499.84 0.32 497.94-0.74Q496.04-1.80 494.96-3.68Q493.88-5.56 493.88-7.92L493.88-7.92ZM495.76-7.88Q495.76-6.08 496.62-4.56Q497.48-3.04 498.96-2.16Q500.44-1.28 502.20-1.28L502.20-1.28Q503.96-1.28 505.44-2.16Q506.92-3.04 507.78-4.56Q508.64-6.08 508.64-7.88L508.64-7.88Q508.64-9.68 507.78-11.22Q506.92-12.76 505.44-13.64Q503.96-14.52 502.20-14.52L502.20-14.52Q500.40-14.52 498.92-13.58Q497.44-12.64 496.60-11.12Q495.76-9.60 495.76-7.88L495.76-7.88Z M521.96-11.92Q522.80-13.80 524.72-14.92Q526.64-16.04 528.56-16.08L528.56-16.08L528.48-14.24Q526.72-14.24 525.24-13.46Q523.76-12.68 522.90-11.30Q522.04-9.92 522.04-8.28L522.04-8.28L522.04 0L520.16 0L520.16-15.64L521.80-15.64L521.96-11.92Z M563.04-16.12Q565.24-16.12 567.06-15.04Q568.88-13.96 569.94-12.06Q571-10.16 571-7.84L571-7.84Q571-5.52 569.92-3.64Q568.84-1.76 566.94-0.72Q565.04 0.32 562.76 0.32L562.76 0.32Q560.68 0.32 558.86-0.68Q557.04-1.68 556-3.32L556-3.32L556 7.52L554.12 7.52L554.12-15.76L555.80-15.76L555.92-12.28Q557.04-14.04 558.94-15.08Q560.84-16.12 563.04-16.12L563.04-16.12ZM562.44-1.24Q564.24-1.24 565.76-2.12Q567.28-3 568.18-4.52Q569.08-6.04 569.08-7.84L569.08-7.84Q569.08-9.68 568.22-11.20Q567.36-12.72 565.86-13.60Q564.36-14.48 562.56-14.48L562.56-14.48Q560.84-14.48 559.38-13.68Q557.92-12.88 557.02-11.50Q556.12-10.12 556-8.44L556-8.44L556-7.16Q556.12-5.52 557.02-4.16Q557.92-2.80 559.34-2.02Q560.76-1.24 562.44-1.24L562.44-1.24Z M587.44-1.32Q589.96-1.32 592-3.04L592-3.04L592.96-1.68Q591.80-0.76 590.34-0.22Q588.88 0.32 587.40 0.32L587.40 0.32Q585 0.32 583.10-0.76Q581.20-1.84 580.14-3.70Q579.08-5.56 579.08-7.88L579.08-7.88Q579.08-10.12 580.20-12.02Q581.32-13.92 583.24-15.04Q585.16-16.16 587.44-16.16L587.44-16.16Q590.16-16.16 592.08-14.56Q594-12.96 594.88-10.24L594.88-10.24L581.52-5.08Q582.28-3.40 583.86-2.36Q585.44-1.32 587.44-1.32L587.44-1.32ZM587.32-14.56Q585.56-14.56 584.08-13.68Q582.60-12.80 581.76-11.30Q580.92-9.80 580.92-7.96L580.92-7.96Q580.92-7.12 581.08-6.48L581.08-6.48L592.60-11Q591.84-12.60 590.48-13.58Q589.12-14.56 587.32-14.56L587.32-14.56Z M605.88-11.92Q606.72-13.80 608.64-14.92Q610.56-16.04 612.48-16.08L612.48-16.08L612.40-14.24Q610.64-14.24 609.16-13.46Q607.68-12.68 606.82-11.30Q605.96-9.92 605.96-8.28L605.96-8.28L605.96 0L604.08 0L604.08-15.64L605.72-15.64L605.88-11.92Z M625.44 0.32Q623.92 0.32 622.50-0.20Q621.08-0.72 620.20-1.80L620.20-1.80L621.08-3.04Q621.88-2.20 623.00-1.70Q624.12-1.20 625.32-1.20L625.32-1.20Q626.84-1.20 627.88-1.90Q628.92-2.60 628.92-4.08L628.92-4.08Q628.92-5.12 628.36-5.74Q627.80-6.36 627.08-6.66Q626.36-6.96 624.76-7.48L624.76-7.48Q622.88-8.12 621.86-9.10Q620.84-10.08 620.84-11.72L620.84-11.72Q620.84-13.64 622.18-14.82Q623.52-16 625.60-16L625.60-16Q628.48-16 630.28-14.24L630.28-14.24L629.44-12.92Q628.84-13.72 627.86-14.08Q626.88-14.44 625.88-14.48L625.88-14.48Q624.68-14.48 623.70-13.82Q622.72-13.16 622.72-11.96L622.72-11.96Q622.72-10.72 623.60-10.10Q624.48-9.48 626.28-8.84L626.28-8.84Q628.48-8.12 629.64-7.22Q630.80-6.32 630.80-4.48L630.80-4.48Q630.80-2.32 629.42-1Q628.04 0.32 625.44 0.32L625.44 0.32Z M638.96-7.92Q638.96-10.16 640.06-12.06Q641.16-13.96 643.08-15.06Q645-16.16 647.32-16.16L647.32-16.16Q649.64-16.16 651.56-15.06Q653.48-13.96 654.56-12.06Q655.64-10.16 655.64-7.92L655.64-7.92Q655.64-5.64 654.54-3.76Q653.44-1.88 651.54-0.78Q649.64 0.32 647.28 0.32L647.28 0.32Q644.92 0.32 643.02-0.74Q641.12-1.80 640.04-3.68Q638.96-5.56 638.96-7.92L638.96-7.92ZM640.84-7.88Q640.84-6.08 641.70-4.56Q642.56-3.04 644.04-2.16Q645.52-1.28 647.28-1.28L647.28-1.28Q649.04-1.28 650.52-2.16Q652-3.04 652.86-4.56Q653.72-6.08 653.72-7.88L653.72-7.88Q653.72-9.68 652.86-11.22Q652-12.76 650.52-13.64Q649.04-14.52 647.28-14.52L647.28-14.52Q645.48-14.52 644-13.58Q642.52-12.64 641.68-11.12Q640.84-9.60 640.84-7.88L640.84-7.88Z M673.64-16.08Q675.80-16.08 677.16-14.78Q678.52-13.48 678.60-11.40L678.60-11.40L678.60 0L676.68 0L676.68-10.88Q676.60-12.44 675.68-13.42Q674.76-14.40 673.04-14.44L673.04-14.44Q671.44-14.44 670.10-13.68Q668.76-12.92 667.94-11.54Q667.12-10.16 667.12-8.40L667.12-8.40L667.12 0L665.24 0L665.24-15.64L666.88-15.64L667.04-12.16Q667.80-13.96 669.62-15.02Q671.44-16.08 673.64-16.08L673.64-16.08Z M703.28-15.64L704.96-15.64L704.96 0L703.08 0L703.08-3.32Q702.16-1.80 700.28-0.74Q698.40 0.32 696.20 0.32L696.20 0.32Q693.96 0.32 692.14-0.70Q690.32-1.72 689.26-3.58Q688.20-5.44 688.20-7.84L688.20-7.84Q688.20-10.40 689.30-12.26Q690.40-14.12 692.34-15.12Q694.28-16.12 696.72-16.12L696.72-16.12Q698.64-16.12 700.40-15.04Q702.16-13.96 703.08-12.24L703.08-12.24L703.28-15.64ZM696.60-1.28Q699.24-1.28 701.08-2.92Q702.92-4.56 703.08-7.12L703.08-7.12L703.08-9.36Q702.60-11.56 700.76-13.04Q698.92-14.52 696.56-14.52L696.56-14.52Q694.76-14.52 693.28-13.70Q691.80-12.88 690.94-11.38Q690.08-9.88 690.08-7.92L690.08-7.92Q690.08-6.12 690.96-4.60Q691.84-3.08 693.34-2.18Q694.84-1.28 696.60-1.28L696.60-1.28Z M716.08-30.40L717.96-30.40L717.96 0L716.08 0L716.08-30.40Z M729.08-15.64L730.96-15.64L730.96 0L729.08 0L729.08-15.64ZM728.68-21.40Q728.68-21.96 729.10-22.34Q729.52-22.72 730.08-22.72L730.08-22.72Q730.64-22.72 731.04-22.34Q731.44-21.96 731.44-21.40L731.44-21.40Q731.44-20.80 731.04-20.42Q730.64-20.04 730.08-20.04L730.08-20.04Q729.52-20.04 729.10-20.44Q728.68-20.84 728.68-21.40L728.68-21.40Z M753.04-15.64L743.16-1.60L752.88-1.60L752.88 0L739.96 0L749.88-14.08L742.48-14.08Q740.08-14.08 740.08-16.36L740.08-16.36L740.08-17.12L741.56-17.12L741.56-16.64Q741.56-15.64 742.92-15.64L742.92-15.64L753.04-15.64Z M769.08-1.32Q771.60-1.32 773.64-3.04L773.64-3.04L774.60-1.68Q773.44-0.76 771.98-0.22Q770.52 0.32 769.04 0.32L769.04 0.32Q766.64 0.32 764.74-0.76Q762.84-1.84 761.78-3.70Q760.72-5.56 760.72-7.88L760.72-7.88Q760.72-10.12 761.84-12.02Q762.96-13.92 764.88-15.04Q766.80-16.16 769.08-16.16L769.08-16.16Q771.80-16.16 773.72-14.56Q775.64-12.96 776.52-10.24L776.52-10.24L763.16-5.08Q763.92-3.40 765.50-2.36Q767.08-1.32 769.08-1.32L769.08-1.32ZM768.96-14.56Q767.20-14.56 765.72-13.68Q764.24-12.80 763.40-11.30Q762.56-9.80 762.56-7.96L762.56-7.96Q762.56-7.12 762.72-6.48L762.72-6.48L774.24-11Q773.48-12.60 772.12-13.58Q770.76-14.56 768.96-14.56L768.96-14.56Z M799.20-30.40L801.08-30.40L801.08 0L799.16 0L799.16-3.24Q798.08-1.64 796.20-0.66Q794.32 0.32 792.12 0.32L792.12 0.32Q789.92 0.32 788.10-0.74Q786.28-1.80 785.24-3.70Q784.20-5.60 784.20-7.92L784.20-7.92Q784.20-10.36 785.28-12.24Q786.36-14.12 788.20-15.12Q790.04-16.12 792.32-16.12L792.32-16.12Q794.36-16.12 796.26-15.12Q798.16-14.12 799.20-12.48L799.20-12.48L799.20-30.40ZM792.60-1.32Q795.28-1.32 797.12-3Q798.96-4.68 799.16-7.24L799.16-7.24L799.16-9.24Q798.72-11.52 796.86-13.04Q795-14.56 792.60-14.56L792.60-14.56Q790.80-14.56 789.32-13.72Q787.84-12.88 786.96-11.38Q786.08-9.88 786.08-7.96L786.08-7.96Q786.08-6.16 786.96-4.64Q787.84-3.12 789.34-2.22Q790.84-1.32 792.60-1.32L792.60-1.32Z M832.16 0.32Q830.64 0.32 829.22-0.20Q827.80-0.72 826.92-1.80L826.92-1.80L827.80-3.04Q828.60-2.20 829.72-1.70Q830.84-1.20 832.04-1.20L832.04-1.20Q833.56-1.20 834.60-1.90Q835.64-2.60 835.64-4.08L835.64-4.08Q835.64-5.12 835.08-5.74Q834.52-6.36 833.80-6.66Q833.08-6.96 831.48-7.48L831.48-7.48Q829.60-8.12 828.58-9.10Q827.56-10.08 827.56-11.72L827.56-11.72Q827.56-13.64 828.90-14.82Q830.24-16 832.32-16L832.32-16Q835.20-16 837-14.24L837-14.24L836.16-12.92Q835.56-13.72 834.58-14.08Q833.60-14.44 832.60-14.48L832.60-14.48Q831.40-14.48 830.42-13.82Q829.44-13.16 829.44-11.96L829.44-11.96Q829.44-10.72 830.32-10.10Q831.20-9.48 833-8.84L833-8.84Q835.20-8.12 836.36-7.22Q837.52-6.32 837.52-4.48L837.52-4.48Q837.52-2.32 836.14-1Q834.76 0.32 832.16 0.32L832.16 0.32Z M855.60-16.08Q857.76-16.08 859.12-14.78Q860.48-13.48 860.56-11.40L860.56-11.40L860.56 0L858.64 0L858.64-10.88Q858.56-12.44 857.64-13.42Q856.72-14.40 855-14.44L855-14.44Q853.44-14.44 852.08-13.64Q850.72-12.84 849.90-11.46Q849.08-10.08 849.08-8.40L849.08-8.40L849.08 0L847.20 0L847.20-30.40L849.04-30.40L849.04-12.40Q849.92-14 851.68-15.04Q853.44-16.08 855.60-16.08L855.60-16.08Z M871.68-15.64L873.56-15.64L873.56 0L871.68 0L871.68-15.64ZM871.28-21.40Q871.28-21.96 871.70-22.34Q872.12-22.72 872.68-22.72L872.68-22.72Q873.24-22.72 873.64-22.34Q874.04-21.96 874.04-21.40L874.04-21.40Q874.04-20.80 873.64-20.42Q873.24-20.04 872.68-20.04L872.68-20.04Q872.12-20.04 871.70-20.44Q871.28-20.84 871.28-21.40L871.28-21.40Z M893.60-16.12Q895.80-16.12 897.62-15.04Q899.44-13.96 900.50-12.06Q901.56-10.16 901.56-7.84L901.56-7.84Q901.56-5.52 900.48-3.64Q899.40-1.76 897.50-0.72Q895.60 0.32 893.32 0.32L893.32 0.32Q891.24 0.32 889.42-0.68Q887.60-1.68 886.56-3.32L886.56-3.32L886.56 7.52L884.68 7.52L884.68-15.76L886.36-15.76L886.48-12.28Q887.60-14.04 889.50-15.08Q891.40-16.12 893.60-16.12L893.60-16.12ZM893-1.24Q894.80-1.24 896.32-2.12Q897.84-3 898.74-4.52Q899.64-6.04 899.64-7.84L899.64-7.84Q899.64-9.68 898.78-11.20Q897.92-12.72 896.42-13.60Q894.92-14.48 893.12-14.48L893.12-14.48Q891.40-14.48 889.94-13.68Q888.48-12.88 887.58-11.50Q886.68-10.12 886.56-8.44L886.56-8.44L886.56-7.16Q886.68-5.52 887.58-4.16Q888.48-2.80 889.90-2.02Q891.32-1.24 893-1.24L893-1.24Z M920.08-16.12Q922.28-16.12 924.10-15.04Q925.92-13.96 926.98-12.06Q928.04-10.16 928.04-7.84L928.04-7.84Q928.04-5.52 926.96-3.64Q925.88-1.76 923.98-0.72Q922.08 0.32 919.80 0.32L919.80 0.32Q917.72 0.32 915.90-0.68Q914.08-1.68 913.04-3.32L913.04-3.32L913.04 7.52L911.16 7.52L911.16-15.76L912.84-15.76L912.96-12.28Q914.08-14.04 915.98-15.08Q917.88-16.12 920.08-16.12L920.08-16.12ZM919.48-1.24Q921.28-1.24 922.80-2.12Q924.32-3 925.22-4.52Q926.12-6.04 926.12-7.84L926.12-7.84Q926.12-9.68 925.26-11.20Q924.40-12.72 922.90-13.60Q921.40-14.48 919.60-14.48L919.60-14.48Q917.88-14.48 916.42-13.68Q914.96-12.88 914.06-11.50Q913.16-10.12 913.04-8.44L913.04-8.44L913.04-7.16Q913.16-5.52 914.06-4.16Q914.96-2.80 916.38-2.02Q917.80-1.24 919.48-1.24L919.48-1.24Z M937.64-15.64L939.52-15.64L939.52 0L937.64 0L937.64-15.64ZM937.24-21.40Q937.24-21.96 937.66-22.34Q938.08-22.72 938.64-22.72L938.64-22.72Q939.20-22.72 939.60-22.34Q940-21.96 940-21.40L940-21.40Q940-20.80 939.60-20.42Q939.20-20.04 938.64-20.04L938.64-20.04Q938.08-20.04 937.66-20.44Q937.24-20.84 937.24-21.40L937.24-21.40Z M959.04-16.08Q961.20-16.08 962.56-14.78Q963.92-13.48 964-11.40L964-11.40L964 0L962.08 0L962.08-10.88Q962-12.44 961.08-13.42Q960.16-14.40 958.44-14.44L958.44-14.44Q956.84-14.44 955.50-13.68Q954.16-12.92 953.34-11.54Q952.52-10.16 952.52-8.40L952.52-8.40L952.52 0L950.64 0L950.64-15.64L952.28-15.64L952.44-12.16Q953.20-13.96 955.02-15.02Q956.84-16.08 959.04-16.08L959.04-16.08Z M988.88-15.64L990.56-15.64L990.56 0.24Q990.56 3.44 988.46 5.54Q986.36 7.64 982.08 7.64L982.08 7.64Q980.04 7.64 978.32 6.90Q976.60 6.16 974.80 4.44L974.80 4.44L975.92 3.16Q977.52 4.72 979.00 5.34Q980.48 5.96 982.00 5.96L982.00 5.96Q985.44 5.96 987.00 4.40Q988.56 2.84 988.64 0.20L988.64 0.20L988.68-3.48Q987.64-1.76 985.74-0.72Q983.84 0.32 981.60 0.32L981.60 0.32Q979.40 0.32 977.58-0.76Q975.76-1.84 974.68-3.72Q973.60-5.60 973.60-7.88L973.60-7.88Q973.60-10.24 974.72-12.12Q975.84-14 977.76-15.06Q979.68-16.12 982.00-16.12L982.00-16.12Q984.04-16.12 985.92-15.10Q987.80-14.08 988.72-12.40L988.72-12.40L988.88-15.64ZM982.08-1.28Q983.80-1.28 985.26-2.06Q986.72-2.84 987.64-4.16Q988.56-5.48 988.68-7L988.68-7L988.68-9.32Q988.20-11.60 986.34-13.06Q984.48-14.52 982.08-14.52L982.08-14.52Q980.24-14.52 978.72-13.68Q977.20-12.84 976.34-11.34Q975.48-9.84 975.48-7.92L975.48-7.92Q975.48-6.12 976.36-4.60Q977.24-3.08 978.76-2.18Q980.28-1.28 982.08-1.28L982.08-1.28Z M1003.84-3.48L1000.40 4.84L998.80 4.84L1001.88-3.48L1003.84-3.48Z"/></g>
</svg>
</g><g opacity="1" transform="rotate(0 128.7361 504.1345)">
<svg width="365.9245" height="100" x="128.7361" y="504.1345" version="1.1" preserveAspectRatio="none" viewBox="1.92 -31.2 143.88 39.31999999999999">
  <g transform="matrix(1 0 0 1 0 0)" class="companyName"><path id="id-D6z1nYkh8" d="M1.92-29.12L21.40-29.12L21.40-24.64L13.88-24.64L13.88 0L9.24 0L9.24-24.64L1.92-24.64L1.92-29.12Z M28.36-13Q29.04-14.36 30.28-15.44Q31.52-16.52 32.82-17.10Q34.12-17.68 35-17.68L35-17.68L34.80-13.20Q32.96-13.36 31.52-12.54Q30.08-11.72 29.28-10.30Q28.48-8.88 28.48-7.28L28.48-7.28L28.48 0L24 0L24-16.92L28.04-16.92L28.36-13Z M52.72-16.92L56.84-16.92L56.84 0L52.36 0L52.36-2.44Q51.44-1.36 49.88-0.46Q48.32 0.44 46.24 0.44L46.24 0.44Q43.80 0.44 41.88-0.58Q39.96-1.60 38.84-3.60Q37.72-5.60 37.72-8.44L37.72-8.44Q37.72-11.20 38.88-13.30Q40.04-15.40 41.98-16.54Q43.92-17.68 46.24-17.68L46.24-17.68Q50.36-17.68 52.40-14.64L52.40-14.64L52.72-16.92ZM47.48-3.24Q49.32-3.24 50.58-4.18Q51.84-5.12 52.36-6.84L52.36-6.84L52.36-10.52Q51.88-12.08 50.50-13.04Q49.12-14 47.32-14L47.32-14Q45.20-14 43.72-12.50Q42.24-11 42.24-8.68L42.24-8.68Q42.24-7.16 42.96-5.92Q43.68-4.68 44.88-3.96Q46.08-3.24 47.48-3.24L47.48-3.24Z M77.04-1.56Q75.92-0.64 74.30-0.10Q72.68 0.44 71.04 0.44L71.04 0.44Q68.24 0.44 66.10-0.64Q63.96-1.72 62.80-3.74Q61.64-5.76 61.64-8.48L61.64-8.48Q61.64-11.16 62.88-13.18Q64.12-15.20 66.18-16.28Q68.24-17.36 70.60-17.36L70.60-17.36Q74.60-17.36 77.20-15.20L77.20-15.20L74.96-12.28Q74.20-12.88 73.18-13.30Q72.16-13.72 71.00-13.72L71.00-13.72Q68.96-13.72 67.54-12.22Q66.12-10.72 66.12-8.48L66.12-8.48Q66.12-6.24 67.62-4.74Q69.12-3.24 71.44-3.24L71.44-3.24Q73.44-3.24 74.80-4.36L74.80-4.36L77.04-1.56Z M92.84 0L88.08-7.68L86.12-6.16L86.12 0L81.64 0L81.64-31.20L86.12-31.20L86.12-10.80L94.60-17.32L97.32-14.92L91.16-10.12L98.04 0L92.84 0Z M102.36-16.92L106.84-16.92L106.84 0L102.36 0L102.36-16.92ZM102.16-22.96Q102.16-23.96 102.96-24.66Q103.76-25.36 104.76-25.36L104.76-25.36Q105.72-25.36 106.50-24.66Q107.28-23.96 107.28-22.96L107.28-22.96Q107.28-21.96 106.50-21.28Q105.72-20.60 104.76-20.60L104.76-20.60Q103.76-20.60 102.96-21.28Q102.16-21.96 102.16-22.96L102.16-22.96Z M114.48 0L114.48-13L111.60-13L111.60-16.96L114.48-16.96L114.48-23.60Q114.48-27.16 116.28-29.16Q118.08-31.16 121.44-31.16L121.44-31.16Q122.44-31.16 123.60-30.86Q124.76-30.56 125.60-30L125.60-30L123.72-26.76Q123.04-27.48 121.92-27.48L121.92-27.48Q118.96-27.48 118.96-23.48L118.96-23.48L118.96-16.96L124.24-16.96L124.24-13L118.96-13L118.96 0L114.48 0Z M141.72-16.92L145.80-16.92L134.88 8.12L130.48 8.12L134.44-0.72L126.60-16.92L131.64-16.92L136.68-5.72L141.72-16.92Z"/></g>
</svg>
</g><g opacity="1" transform="rotate(0 220.2173 305.066)">
<svg width="182.9621" height="169.0685" x="220.2173" y="305.066" version="1.1" preserveAspectRatio="none" viewBox="20 26.07500457763672 160 147.85000610351562">
  <g transform="matrix(1 0 0 1 0 0)"><g><path d="M99.3 29.9L38.6 65v70l60.7 35v-68L160 66.6V65L99.3 29.9z" data-color="1" class="icon1"></path><path d="M180 56.6l-1.8-3.1-15.4 8.9-62.6-36.1c-.6-.3-1.3-.3-1.8 0l-62.5 36c-.6.3-.9.9-.9 1.6v72.2l-15 8.6 1.8 3.1 15.9-9.2 60.8 35.1c.6.3 1.3.3 1.8 0l62.6-36.1c.6-.3.9-.9.9-1.6V66l16.2-9.4zM38.6 65l60.7-35 59.8 34.5L38.6 134V65zm60.7 105.1l-58-33.5 58-33.5v67z" data-color="2" class="icon2"></path></g></g>
</svg>
</g></svg></svg>