<?xml version="1.0" encoding="UTF-8"?>
<svg id="Layer_1" data-name="Layer 1" xmlns="http://www.w3.org/2000/svg" xmlns:xlink="http://www.w3.org/1999/xlink" version="1.1" viewBox="0 0 280 280">
  <defs>
    <style>
      .cls-1 {
        fill: #333;
      }

      .cls-1, .cls-2, .cls-3, .cls-4, .cls-5, .cls-6, .cls-7 {
        stroke-width: 0px;
      }

      .cls-2 {
        fill: #c7b29e;
      }

      .cls-3 {
        fill: #8c5d25;
      }

      .cls-4 {
        fill: url(#linear-gradient);
      }

      .cls-5 {
        fill: #dda053;
      }

      .cls-8 {
        stroke: silver;
        stroke-dasharray: 0 0 4 4;
      }

      .cls-8, .cls-9 {
        fill: none;
      }

      .cls-9 {
        stroke: #b9b9b9;
        stroke-linecap: round;
      }

      .cls-6 {
        fill: #fff;
      }

      .cls-7 {
        fill: #aa782e;
      }
    </style>
    <linearGradient id="linear-gradient" x1="141.6" y1="160.8" x2="349.4" y2="14.9" gradientTransform="translate(0 282) scale(1 -1)" gradientUnits="userSpaceOnUse">
      <stop offset="0" stop-color="#351c14" stop-opacity="0"/>
      <stop offset="1" stop-color="#351c14"/>
    </linearGradient>
  </defs>
  <path class="cls-7" d="M117.7,112.8L27.3,76.4l-.6,82.8,90.6,36.4.6-82.8h-.2Z"/>
  <path class="cls-3" d="M117.7,112.8l90.6-36.4-.6,82.8-90.6,36.4.6-82.8Z"/>
  <path class="cls-4" d="M117.7,112.8l90.6-36.4-.6,82.8-90.6,36.4.6-82.8Z"/>
  <path class="cls-5" d="M27.3,76.4l90.6,36.4,90.6-36.4-90.8-36.4L27.3,76.4Z"/>
  <path class="cls-2" d="M80.6,97.8l-17.2-6.9v16.9l17.2,6.9v-16.9Z"/>
  <path class="cls-6" d="M154.1,54.4l-90.6,36.4,17.2,6.9,90.4-36.4-17-6.9Z"/>
  <path class="cls-9" d="M213.9,201.3l-3.2-1.3"/>
  <path class="cls-9" d="M213.9,201.3l-1.7,3"/>
  <path class="cls-9" d="M143.4,228.1l3.5.4"/>
  <path class="cls-9" d="M143.4,228.1l.8-3.4"/>
  <line class="cls-8" x1="151.2" y1="224.7" x2="207.3" y2="203.1"/>
  <path class="cls-1" d="M185.2,236.5l2.3-8.1h1.1l-.6,3.1-2.5,8.4h-1.1l.8-3.5ZM182.8,228.4l1.8,7.9.5,3.7h-1.1l-2.8-11.6h1.5ZM191.5,236.3l1.8-7.9h1.5l-2.8,11.6h-1.1l.6-3.7ZM188.7,228.4l2.2,8.1.8,3.5h-1.1l-2.4-8.4-.6-3.1h1.1Z"/>
  <path class="cls-9" d="M238,69.8l-2.1,2.8"/>
  <path class="cls-9" d="M238,69.8l2.5,2.5"/>
  <path class="cls-9" d="M238.2,161l2.1-2.8"/>
  <path class="cls-9" d="M238.2,161.1l-2.5-2.5"/>
  <line class="cls-8" x1="238.1" y1="75.7" x2="238.1" y2="153.1"/>
  <path class="cls-1" d="M273.7,126.1v1.2h-6.2v-1.2h6.2ZM267.7,121.1v11.6h-1.5v-11.6h1.5ZM275,121.1v11.6h-1.5v-11.6h1.5Z"/>
  <path class="cls-8" d="M11.2,197.1l65.2,26.3"/>
  <path class="cls-9" d="M5,193.1l1.4,3.2"/>
  <path class="cls-9" d="M5,193.1l3.3-1"/>
  <path class="cls-9" d="M82.7,226.5l-1.5-3.1"/>
  <path class="cls-9" d="M82.7,226.6l-3.3,1.1"/>
  <path class="cls-1" d="M38,232.4v1.2h-5.7v-1.2h5.7ZM32.6,222.1v11.6h-1.5v-11.6h1.5Z"/>
</svg>