<svg xmlns="http://www.w3.org/2000/svg" x="0px" y="0px" width="128px" height="128px" viewBox="0 0 128 128" enable-background="new 0 0 128 128">
  <path fill="#FFC71C" d="M10,0C4.477,0,0,4.477,0,10v108c0,5.523,4.477,10,10,10h108c5.521,0,10-4.477,10-10V10	c0-5.523-4.479-10-10-10H10z"/>
  <polygon fill="#231F20" points="102.791,86.364 91.831,75.283 80.99,75.283 91.95,86.364"/>
  <polygon fill="#231F20" points="66.318,75.283 77.305,86.364 88.146,86.364 77.184,75.283"/>
  <path fill="#231F20" d="M88.648,26.044c-0.265,5.444-1.564,13.273-3.442,18.404C85.23,31.006,74.63,21.612,61.791,21.636	c-14.261,0-25.655,12.237-22.933,27.341c-2.312-3.541-5.612-11.25-4.24-21.896l-8.358,2.65	c-1.494,18.788,9.515,43.553,37.988,43.553c25.148,0,42.132-19.825,43.674-42.445L88.648,26.044z M61.815,60.372	c-8.503,0-15.393-6.913-15.393-15.417c0-8.503,6.889-15.417,15.393-15.417c8.528,0,15.417,6.889,15.417,15.417	C77.23,53.458,70.343,60.372,61.815,60.372z"/>
  <polygon fill="#231F20" points="27.32,86.364 38.184,86.364 49.144,75.283 38.304,75.283"/>
  <polygon fill="#231F20" points="63.791,75.283 52.926,75.283 41.966,86.364 52.854,86.364"/>
  <path fill="#231F20" d="M102.087,108.363c-0.706,0-1.381-0.191-2.028-0.518l-0.117,1.688c0.75,0.196,1.549,0.339,2.334,0.339	c1.682,0,3.322-0.729,3.322-2.585c0-2.862-3.584-2.056-3.584-3.311c0-0.682,0.666-0.886,1.217-0.886	c0.752,0,1.211,0.124,1.845,0.342l0.136-1.553c-0.646-0.138-1.273-0.296-2.24-0.296c-1.619,0-3.109,0.752-3.109,2.462	c0,2.861,3.582,1.799,3.582,3.352C103.441,108.172,102.616,108.363,102.087,108.363z"/>
  <path fill="#231F20" d="M86.254,98.957h-2.725v10.729h2.152v-4.07h0.91c2.305,0,4.135-0.914,4.135-3.417	C90.729,99.632,88.591,98.957,86.254,98.957z M86.436,103.919h-0.754v-3.271h0.754c1.109,0,2.047,0.434,2.047,1.673	C88.482,103.574,87.516,103.919,86.436,103.919z"/>
  <path fill="#231F20" d="M75.26,101.583c-2.462,0-3.678,1.895-3.678,4.184c0,2.597,1.521,4.104,4.134,4.104	c1.116,0,1.972-0.211,2.724-0.63v-1.675c-0.768,0.429-1.631,0.797-2.627,0.797c-1.276,0-2.166-0.716-2.258-1.99h5.471	C79.025,103.6,78.197,101.583,75.26,101.583z M73.555,104.95c0.092-1.054,0.674-1.86,1.828-1.86s1.614,0.86,1.672,1.86H73.555z"/>
  <path fill="#231F20" d="M110.32,109.871c0.617,0,1.094-0.059,1.521-0.187l-0.058-1.62c-0.214,0.131-0.571,0.207-0.938,0.207	c-0.785,0-0.968-0.625-0.968-1.301v-3.696h1.825v-1.503h-1.825v-2.244l-2.063,0.66v1.584h-1.521v1.503h1.521v4.038	C107.816,108.877,108.706,109.871,110.32,109.871z"/>
  <path fill="#231F20" d="M94.852,109.871c2.631,0,4.153-1.807,4.153-4.089c0-2.616-1.799-4.199-4.153-4.199	c-2.338,0-4.138,1.583-4.138,4.199C90.714,108.064,92.236,109.871,94.852,109.871z M94.852,103.182c1.354,0,1.998,1.145,1.998,2.359	c0,1.319-0.418,2.73-1.998,2.73c-1.566,0-1.986-1.428-1.986-2.73C92.863,104.351,93.514,103.182,94.852,103.182z"/>
  <path fill="#231F20" d="M30.374,101.583c-2.458,0-3.673,1.895-3.673,4.184c0,2.597,1.522,4.104,4.134,4.104	c1.107,0,1.971-0.211,2.722-0.63v-1.675c-0.771,0.429-1.626,0.797-2.631,0.797c-1.272,0-2.167-0.716-2.259-1.99h5.475	C34.142,103.6,33.313,101.583,30.374,101.583z M28.667,104.95c0.093-1.054,0.675-1.86,1.831-1.86c1.154,0,1.614,0.86,1.676,1.86	H28.667z"/>
  <path fill="#231F20" d="M42.354,109.686v-7.913h-2.063v3.869c0,1.017-0.321,2.631-1.81,2.631c-1.323,0-1.337-1.301-1.337-2.274	v-4.226H35.08v4.996c0,1.782,0.816,3.104,2.689,3.104c1.081,0,1.967-0.492,2.6-1.259H40.4v1.072H42.354z"/>
  <path fill="#231F20" d="M70.586,109.686v-4.991c0-1.783-0.813-3.111-2.691-3.111c-1.076,0-1.969,0.491-2.49,1.257h-0.03v-4.686	h-2.058v11.53h2.058v-3.872c0-1.016,0.324-2.631,1.813-2.631c1.324,0,1.338,1.305,1.338,2.271v4.232H70.586z"/>
  <path fill="#231F20" d="M16.75,98.957v10.729h2.938c3.286,0,6.193-1.104,6.193-5.359c0-4.261-2.907-5.369-6.193-5.369H16.75	L16.75,98.957z M23.637,104.326c0,2.332-1.737,3.669-3.536,3.669h-1.196v-7.348h1.196C21.9,100.647,23.637,101.979,23.637,104.326z"/>
  <path fill="#231F20" d="M47.313,109.871c0.618,0,1.094-0.059,1.526-0.187l-0.065-1.62c-0.214,0.131-0.568,0.207-0.937,0.207	c-0.785,0-0.97-0.625-0.97-1.301v-3.696h1.834v-1.503h-1.834v-2.244l-2.063,0.66v1.584h-1.518v1.503h1.518v4.038	C44.804,108.877,45.695,109.871,47.313,109.871z"/>
  <path fill="#231F20" d="M60.523,103.182c0.628,0,1.027,0.127,1.395,0.296l0.188-1.637c-0.571-0.162-1.174-0.258-1.997-0.258	c-2.477,0-3.832,1.818-3.832,4.108c0,2.406,1.304,4.18,3.904,4.18c0.843,0,1.461-0.081,2.059-0.266l-0.088-1.705	c-0.354,0.165-1.002,0.372-1.585,0.372c-1.445,0-2.139-1.123-2.139-2.58C58.43,104.199,59.241,103.182,60.523,103.182z"/>
  <path fill="#231F20" d="M51.987,108.363c-0.705,0-1.384-0.191-2.033-0.518l-0.118,1.688c0.752,0.196,1.549,0.339,2.335,0.339	c1.679,0,3.32-0.729,3.32-2.585c0-2.862-3.582-2.056-3.582-3.311c0-0.682,0.665-0.886,1.212-0.886c0.751,0,1.215,0.124,1.845,0.342	l0.143-1.553c-0.649-0.138-1.282-0.296-2.244-0.296c-1.619,0-3.11,0.752-3.11,2.462c0,2.861,3.583,1.799,3.583,3.352	C53.338,108.172,52.509,108.363,51.987,108.363z"/>
</svg>
