<svg version="1.1" preserveAspectRatio="none" xmlns="http://www.w3.org/2000/svg" width="500" height="500" viewBox="0 0 500 500"><rect width="100%" height="100%" fill="#007B8B" fill-opacity="1"/><svg viewBox="-22.1866 301.5334 865.8349 144" width="333" height="55.38238294621758" x="83.5px" y="222.3088px" xmlns="http://www.w3.org/2000/svg" xmlns:xlink="http://www.w3.org/1999/xlink" preserveAspectRatio="none"><defs></defs><style>.aD6z1nYkhcolor {fill:#58FF75;fill-opacity:1;}.aIptOCySncolors-3 {fill:#00B0BE;fill-opacity:1;}.aIptOCySncolors-4 {fill:#89FF9D;fill-opacity:1;}.aIptOCySncolors-5 {fill:#007B8B;fill-opacity:1;}.aIptOCySncolors-6 {fill:#58FF75;fill-opacity:1;}.aIptOCySncolors-7 {fill:#5CB8FF;fill-opacity:1;}.icon1 {fill:#005477;fill-opacity:1;}.icon2 {fill:#3A9AF9;fill-opacity:1;}.icon3 {fill:#FFFFFF;fill-opacity:1;}.icon3-str {stroke:#FFFFFF;stroke-opacity:1;}.text {fill:#58FF75;fill-opacity:1;}</style><g opacity="1" transform="rotate(0 166.4684 301.5334)">
<svg width="83.1251" height="100" x="166.4684" y="301.5334" version="1.1" preserveAspectRatio="none" viewBox="33.5 20 133 160">
  <g transform="matrix(1 0 0 1 0 0)"><g><path d="M165.3 81l-58.6-30.5v60.7l58.6 30.5V81z" data-color="1" class="icon1"></path><path d="M107.9 111.1l-74.4 38.2V58.2L107.9 20v91.1z" data-color="2" class="icon2"></path><path d="M166.5 141.8L92.1 180V88.9l74.4-38.2v91.1z" data-color="3" class="icon3"></path><path d="M92.2 119.3L33.6 88.8v60.7L92.2 180v-60.7z" data-color="1" class="icon1"></path></g></g>
</svg>
</g><g opacity="1" transform="rotate(0 -22.1866 417.5334)">
<svg width="865.8349" height="28" x="-22.1866" y="417.5334" version="1.1" preserveAspectRatio="none" viewBox="-1 -29.88 1170.12 37.84">
  <g transform="matrix(1 0 0 1 0 0)" class="text"><path id="id-6izo4zJp50" d="M18.84-21.04L21.64-21.04L11.12 2.52Q9.84 5.48 8.16 6.72Q6.48 7.96 4.12 7.96L4.12 7.96Q2.60 7.96 1.28 7.48Q-0.04 7-1 6.04L-1 6.04L0.32 3.92Q1.92 5.52 4.16 5.52L4.16 5.52Q5.60 5.52 6.62 4.72Q7.64 3.92 8.52 2L8.52 2L9.44-0.04L0.04-21.04L3-21.04L10.92-3.16L18.84-21.04Z M37.64 0.20Q34.60 0.20 32.16-1.18Q29.72-2.56 28.32-5Q26.92-7.44 26.92-10.52L26.92-10.52Q26.92-13.60 28.32-16.04Q29.72-18.48 32.16-19.84Q34.60-21.20 37.64-21.20L37.64-21.20Q40.68-21.20 43.12-19.84Q45.56-18.48 46.94-16.04Q48.32-13.60 48.32-10.52L48.32-10.52Q48.32-7.44 46.94-5Q45.56-2.56 43.12-1.18Q40.68 0.20 37.64 0.20L37.64 0.20ZM37.64-2.32Q39.88-2.32 41.66-3.34Q43.44-4.36 44.44-6.24Q45.44-8.12 45.44-10.52L45.44-10.52Q45.44-12.92 44.44-14.80Q43.44-16.68 41.66-17.70Q39.88-18.72 37.64-18.72L37.64-18.72Q35.40-18.72 33.62-17.70Q31.84-16.68 30.82-14.80Q29.80-12.92 29.80-10.52L29.80-10.52Q29.80-8.12 30.82-6.24Q31.84-4.36 33.62-3.34Q35.40-2.32 37.64-2.32L37.64-2.32Z M74.24-21.04L77.08-21.04L77.08 0L74.36 0L74.36-3.84Q73.24-1.92 71.28-0.86Q69.32 0.20 66.80 0.20L66.80 0.20Q62.68 0.20 60.30-2.10Q57.92-4.40 57.92-8.84L57.92-8.84L57.92-21.04L60.76-21.04L60.76-9.12Q60.76-5.80 62.40-4.08Q64.04-2.36 67.08-2.36L67.08-2.36Q70.40-2.36 72.32-4.38Q74.24-6.40 74.24-10L74.24-10L74.24-21.04Z M91.76-16.92Q92.76-19.04 94.74-20.12Q96.72-21.20 99.64-21.20L99.64-21.20L99.64-18.44L98.96-18.48Q95.64-18.48 93.76-16.44Q91.88-14.40 91.88-10.72L91.88-10.72L91.88 0L89.04 0L89.04-21.04L91.76-21.04L91.76-16.92Z M140.32-21.04L143.04-21.04L143.04-2.56Q143.04 2.80 140.42 5.38Q137.80 7.96 132.52 7.96L132.52 7.96Q129.60 7.96 126.98 7.10Q124.36 6.24 122.72 4.72L122.72 4.72L124.16 2.56Q125.68 3.92 127.86 4.68Q130.04 5.44 132.44 5.44L132.44 5.44Q136.44 5.44 138.32 3.58Q140.20 1.72 140.20-2.20L140.20-2.20L140.20-4.88Q138.88-2.88 136.74-1.84Q134.60-0.80 132-0.80L132-0.80Q129.04-0.80 126.62-2.10Q124.20-3.40 122.82-5.74Q121.44-8.08 121.44-11.04L121.44-11.04Q121.44-14 122.82-16.32Q124.20-18.64 126.60-19.92Q129-21.20 132-21.20L132-21.20Q134.68-21.20 136.84-20.12Q139-19.04 140.32-17L140.32-17L140.32-21.04ZM132.28-3.32Q134.56-3.32 136.40-4.30Q138.24-5.28 139.26-7.04Q140.28-8.80 140.28-11.04L140.28-11.04Q140.28-13.28 139.26-15.02Q138.24-16.76 136.42-17.74Q134.60-18.72 132.28-18.72L132.28-18.72Q130-18.72 128.18-17.76Q126.36-16.80 125.34-15.04Q124.32-13.28 124.32-11.04L124.32-11.04Q124.32-8.80 125.34-7.04Q126.36-5.28 128.18-4.30Q130-3.32 132.28-3.32L132.28-3.32Z M163.60 0.20Q160.56 0.20 158.12-1.18Q155.68-2.56 154.28-5Q152.88-7.44 152.88-10.52L152.88-10.52Q152.88-13.60 154.28-16.04Q155.68-18.48 158.12-19.84Q160.56-21.20 163.60-21.20L163.60-21.20Q166.64-21.20 169.08-19.84Q171.52-18.48 172.90-16.04Q174.28-13.60 174.28-10.52L174.28-10.52Q174.28-7.44 172.90-5Q171.52-2.56 169.08-1.18Q166.64 0.20 163.60 0.20L163.60 0.20ZM163.60-2.32Q165.84-2.32 167.62-3.34Q169.40-4.36 170.40-6.24Q171.40-8.12 171.40-10.52L171.40-10.52Q171.40-12.92 170.40-14.80Q169.40-16.68 167.62-17.70Q165.84-18.72 163.60-18.72L163.60-18.72Q161.36-18.72 159.58-17.70Q157.80-16.68 156.78-14.80Q155.76-12.92 155.76-10.52L155.76-10.52Q155.76-8.12 156.78-6.24Q157.80-4.36 159.58-3.34Q161.36-2.32 163.60-2.32L163.60-2.32Z M182.92-9.60L182.92-12.08L193.40-12.08L193.40-9.60L182.92-9.60Z M213.84-3.32L214.84-1.28Q214.04-0.56 212.86-0.18Q211.68 0.20 210.40 0.20L210.40 0.20Q207.44 0.20 205.84-1.40Q204.24-3 204.24-5.92L204.24-5.92L204.24-18.64L200.48-18.64L200.48-21.04L204.24-21.04L204.24-25.64L207.08-25.64L207.08-21.04L213.48-21.04L213.48-18.64L207.08-18.64L207.08-6.08Q207.08-4.20 208.02-3.22Q208.96-2.24 210.72-2.24L210.72-2.24Q211.60-2.24 212.42-2.52Q213.24-2.80 213.84-3.32L213.84-3.32Z M231.84 0.20Q228.80 0.20 226.36-1.18Q223.92-2.56 222.52-5Q221.12-7.44 221.12-10.52L221.12-10.52Q221.12-13.60 222.52-16.04Q223.92-18.48 226.36-19.84Q228.80-21.20 231.84-21.20L231.84-21.20Q234.88-21.20 237.32-19.84Q239.76-18.48 241.14-16.04Q242.52-13.60 242.52-10.52L242.52-10.52Q242.52-7.44 241.14-5Q239.76-2.56 237.32-1.18Q234.88 0.20 231.84 0.20L231.84 0.20ZM231.84-2.32Q234.08-2.32 235.86-3.34Q237.64-4.36 238.64-6.24Q239.64-8.12 239.64-10.52L239.64-10.52Q239.64-12.92 238.64-14.80Q237.64-16.68 235.86-17.70Q234.08-18.72 231.84-18.72L231.84-18.72Q229.60-18.72 227.82-17.70Q226.04-16.68 225.02-14.80Q224.00-12.92 224.00-10.52L224.00-10.52Q224.00-8.12 225.02-6.24Q226.04-4.36 227.82-3.34Q229.60-2.32 231.84-2.32L231.84-2.32Z M283.16-29.68L286.00-29.68L286.00 0L283.28 0L283.28-4.16Q282.00-2.04 279.90-0.92Q277.80 0.20 275.16 0.20L275.16 0.20Q272.20 0.20 269.80-1.16Q267.40-2.52 266.04-4.96Q264.68-7.40 264.68-10.52L264.68-10.52Q264.68-13.64 266.04-16.08Q267.40-18.52 269.80-19.86Q272.20-21.20 275.16-21.20L275.16-21.20Q277.72-21.20 279.78-20.14Q281.84-19.08 283.16-17.04L283.16-17.04L283.16-29.68ZM275.40-2.32Q277.60-2.32 279.38-3.34Q281.16-4.36 282.18-6.24Q283.20-8.12 283.20-10.52L283.20-10.52Q283.20-12.92 282.18-14.80Q281.16-16.68 279.38-17.70Q277.60-18.72 275.40-18.72L275.40-18.72Q273.16-18.72 271.38-17.70Q269.60-16.68 268.58-14.80Q267.56-12.92 267.56-10.52L267.56-10.52Q267.56-8.12 268.58-6.24Q269.60-4.36 271.38-3.34Q273.16-2.32 275.40-2.32L275.40-2.32Z M316.28-10.52L316.24-9.64L298.64-9.64Q298.88-6.36 301.16-4.34Q303.44-2.32 306.92-2.32L306.92-2.32Q308.88-2.32 310.52-3.02Q312.16-3.72 313.36-5.08L313.36-5.08L314.96-3.24Q313.56-1.56 311.46-0.68Q309.36 0.20 306.84 0.20L306.84 0.20Q303.60 0.20 301.10-1.18Q298.60-2.56 297.20-5Q295.80-7.44 295.80-10.52L295.80-10.52Q295.80-13.60 297.14-16.04Q298.48-18.48 300.82-19.84Q303.16-21.20 306.08-21.20L306.08-21.20Q309.00-21.20 311.32-19.84Q313.64-18.48 314.96-16.06Q316.28-13.64 316.28-10.52L316.28-10.52ZM306.08-18.76Q303.04-18.76 300.98-16.82Q298.92-14.88 298.64-11.76L298.64-11.76L313.56-11.76Q313.28-14.88 311.22-16.82Q309.16-18.76 306.08-18.76L306.08-18.76Z M331.72 0.20Q329.16 0.20 326.82-0.54Q324.48-1.28 323.16-2.40L323.16-2.40L324.44-4.64Q325.76-3.60 327.76-2.94Q329.76-2.28 331.92-2.28L331.92-2.28Q334.80-2.28 336.18-3.18Q337.56-4.08 337.56-5.72L337.56-5.72Q337.56-6.88 336.80-7.54Q336.04-8.20 334.88-8.54Q333.72-8.88 331.80-9.20L331.80-9.20Q329.24-9.68 327.68-10.18Q326.12-10.68 325.02-11.88Q323.92-13.08 323.92-15.20L323.92-15.20Q323.92-17.84 326.12-19.52Q328.32-21.20 332.24-21.20L332.24-21.20Q334.28-21.20 336.32-20.66Q338.36-20.12 339.68-19.24L339.68-19.24L338.44-16.96Q335.84-18.76 332.24-18.76L332.24-18.76Q329.52-18.76 328.14-17.80Q326.76-16.84 326.76-15.28L326.76-15.28Q326.76-14.08 327.54-13.36Q328.32-12.64 329.48-12.30Q330.64-11.96 332.68-11.60L332.68-11.60Q335.20-11.12 336.72-10.64Q338.24-10.16 339.32-9Q340.40-7.84 340.40-5.80L340.40-5.80Q340.40-3.04 338.10-1.42Q335.80 0.20 331.72 0.20L331.72 0.20Z M359.72-3.32L360.72-1.28Q359.92-0.56 358.74-0.18Q357.56 0.20 356.28 0.20L356.28 0.20Q353.32 0.20 351.72-1.40Q350.12-3 350.12-5.92L350.12-5.92L350.12-18.64L346.36-18.64L346.36-21.04L350.12-21.04L350.12-25.64L352.96-25.64L352.96-21.04L359.36-21.04L359.36-18.64L352.96-18.64L352.96-6.08Q352.96-4.20 353.90-3.22Q354.84-2.24 356.60-2.24L356.60-2.24Q357.48-2.24 358.30-2.52Q359.12-2.80 359.72-3.32L359.72-3.32Z M369.88 0L369.88-21.04L372.72-21.04L372.72 0L369.88 0ZM371.32-25.64Q370.44-25.64 369.84-26.24Q369.24-26.84 369.24-27.68L369.24-27.68Q369.24-28.48 369.84-29.08Q370.44-29.68 371.32-29.68L371.32-29.68Q372.20-29.68 372.80-29.10Q373.40-28.52 373.40-27.72L373.40-27.72Q373.40-26.84 372.80-26.24Q372.20-25.64 371.32-25.64L371.32-25.64Z M395.36-21.20Q399.32-21.20 401.66-18.90Q404.00-16.60 404.00-12.20L404.00-12.20L404.00 0L401.16 0L401.16-11.92Q401.16-15.20 399.52-16.92Q397.88-18.64 394.84-18.64L394.84-18.64Q391.44-18.64 389.46-16.62Q387.48-14.60 387.48-11.04L387.48-11.04L387.48 0L384.64 0L384.64-21.04L387.36-21.04L387.36-17.16Q388.52-19.08 390.58-20.14Q392.64-21.20 395.36-21.20L395.36-21.20Z M423.08-21.20Q427.20-21.20 429.40-19.14Q431.60-17.08 431.60-13.04L431.60-13.04L431.60 0L428.88 0L428.88-3.28Q427.92-1.64 426.06-0.72Q424.20 0.20 421.64 0.20L421.64 0.20Q418.12 0.20 416.04-1.48Q413.96-3.16 413.96-5.92L413.96-5.92Q413.96-8.60 415.90-10.24Q417.84-11.88 422.08-11.88L422.08-11.88L428.76-11.88L428.76-13.16Q428.76-15.88 427.24-17.30Q425.72-18.72 422.80-18.72L422.80-18.72Q420.80-18.72 418.96-18.06Q417.12-17.40 415.80-16.24L415.80-16.24L414.52-18.36Q416.12-19.72 418.36-20.46Q420.60-21.20 423.08-21.20L423.08-21.20ZM422.08-2.04Q424.48-2.04 426.20-3.14Q427.92-4.24 428.76-6.32L428.76-6.32L428.76-9.76L422.16-9.76Q416.76-9.76 416.76-6L416.76-6Q416.76-4.16 418.16-3.10Q419.56-2.04 422.08-2.04L422.08-2.04Z M453.40-3.32L454.40-1.28Q453.60-0.56 452.42-0.18Q451.24 0.20 449.96 0.20L449.96 0.20Q447.00 0.20 445.40-1.40Q443.80-3 443.80-5.92L443.80-5.92L443.80-18.64L440.04-18.64L440.04-21.04L443.80-21.04L443.80-25.64L446.64-25.64L446.64-21.04L453.04-21.04L453.04-18.64L446.64-18.64L446.64-6.08Q446.64-4.20 447.58-3.22Q448.52-2.24 450.28-2.24L450.28-2.24Q451.16-2.24 451.98-2.52Q452.80-2.80 453.40-3.32L453.40-3.32Z M463.56 0L463.56-21.04L466.40-21.04L466.40 0L463.56 0ZM465.00-25.64Q464.12-25.64 463.52-26.24Q462.92-26.84 462.92-27.68L462.92-27.68Q462.92-28.48 463.52-29.08Q464.12-29.68 465.00-29.68L465.00-29.68Q465.88-29.68 466.48-29.10Q467.08-28.52 467.08-27.72L467.08-27.72Q467.08-26.84 466.48-26.24Q465.88-25.64 465.00-25.64L465.00-25.64Z M486.92 0.20Q483.88 0.20 481.44-1.18Q479.00-2.56 477.60-5Q476.20-7.44 476.20-10.52L476.20-10.52Q476.20-13.60 477.60-16.04Q479.00-18.48 481.44-19.84Q483.88-21.20 486.92-21.20L486.92-21.20Q489.96-21.20 492.40-19.84Q494.84-18.48 496.22-16.04Q497.60-13.60 497.60-10.52L497.60-10.52Q497.60-7.44 496.22-5Q494.84-2.56 492.40-1.18Q489.96 0.20 486.92 0.20L486.92 0.20ZM486.92-2.32Q489.16-2.32 490.94-3.34Q492.72-4.36 493.72-6.24Q494.72-8.12 494.72-10.52L494.72-10.52Q494.72-12.92 493.72-14.80Q492.72-16.68 490.94-17.70Q489.16-18.72 486.92-18.72L486.92-18.72Q484.68-18.72 482.90-17.70Q481.12-16.68 480.10-14.80Q479.08-12.92 479.08-10.52L479.08-10.52Q479.08-8.12 480.10-6.24Q481.12-4.36 482.90-3.34Q484.68-2.32 486.92-2.32L486.92-2.32Z M518.12-21.20Q522.08-21.20 524.42-18.90Q526.76-16.60 526.76-12.20L526.76-12.20L526.76 0L523.92 0L523.92-11.92Q523.92-15.20 522.28-16.92Q520.64-18.64 517.60-18.64L517.60-18.64Q514.20-18.64 512.22-16.62Q510.24-14.60 510.24-11.04L510.24-11.04L510.24 0L507.40 0L507.40-21.04L510.12-21.04L510.12-17.16Q511.28-19.08 513.34-20.14Q515.40-21.20 518.12-21.20L518.12-21.20Z M559.92-27.48Q558.08-27.48 557.14-26.48Q556.20-25.48 556.20-23.52L556.20-23.52L556.20-21.04L562.68-21.04L562.68-18.64L556.28-18.64L556.28 0L553.44 0L553.44-18.64L549.68-18.64L549.68-21.04L553.44-21.04L553.44-23.64Q553.44-26.52 555.10-28.20Q556.76-29.88 559.80-29.88L559.80-29.88Q561.00-29.88 562.12-29.54Q563.24-29.20 564.00-28.56L564.00-28.56L563.04-26.44Q561.80-27.48 559.92-27.48L559.92-27.48Z M578.76 0.20Q575.72 0.20 573.28-1.18Q570.84-2.56 569.44-5Q568.04-7.44 568.04-10.52L568.04-10.52Q568.04-13.60 569.44-16.04Q570.84-18.48 573.28-19.84Q575.72-21.20 578.76-21.20L578.76-21.20Q581.80-21.20 584.24-19.84Q586.68-18.48 588.06-16.04Q589.44-13.60 589.44-10.52L589.44-10.52Q589.44-7.44 588.06-5Q586.68-2.56 584.24-1.18Q581.80 0.20 578.76 0.20L578.76 0.20ZM578.76-2.32Q581-2.32 582.78-3.34Q584.56-4.36 585.56-6.24Q586.56-8.12 586.56-10.52L586.56-10.52Q586.56-12.92 585.56-14.80Q584.56-16.68 582.78-17.70Q581-18.72 578.76-18.72L578.76-18.72Q576.52-18.72 574.74-17.70Q572.96-16.68 571.94-14.80Q570.92-12.92 570.92-10.52L570.92-10.52Q570.92-8.12 571.94-6.24Q572.96-4.36 574.74-3.34Q576.52-2.32 578.76-2.32L578.76-2.32Z M601.96-16.92Q602.96-19.04 604.94-20.12Q606.92-21.20 609.84-21.20L609.84-21.20L609.84-18.44L609.16-18.48Q605.84-18.48 603.96-16.44Q602.08-14.40 602.08-10.72L602.08-10.72L602.08 0L599.24 0L599.24-21.04L601.96-21.04L601.96-16.92Z M644.60-21.20Q647.56-21.20 649.96-19.86Q652.36-18.52 653.72-16.08Q655.08-13.64 655.08-10.52L655.08-10.52Q655.08-7.36 653.72-4.92Q652.36-2.48 649.98-1.14Q647.60 0.20 644.60 0.20L644.60 0.20Q642.04 0.20 639.98-0.86Q637.92-1.92 636.60-3.96L636.60-3.96L636.60 7.76L633.76 7.76L633.76-21.04L636.48-21.04L636.48-16.88Q637.76-18.96 639.86-20.08Q641.96-21.20 644.60-21.20L644.60-21.20ZM644.40-2.32Q646.60-2.32 648.40-3.34Q650.20-4.36 651.22-6.24Q652.24-8.12 652.24-10.52L652.24-10.52Q652.24-12.92 651.22-14.78Q650.20-16.64 648.40-17.68Q646.60-18.72 644.40-18.72L644.40-18.72Q642.16-18.72 640.38-17.68Q638.60-16.64 637.58-14.78Q636.56-12.92 636.56-10.52L636.56-10.52Q636.56-8.12 637.58-6.24Q638.60-4.36 640.38-3.34Q642.16-2.32 644.40-2.32L644.40-2.32Z M683.24-10.52L683.20-9.64L665.60-9.64Q665.84-6.36 668.12-4.34Q670.40-2.32 673.88-2.32L673.88-2.32Q675.84-2.32 677.48-3.02Q679.12-3.72 680.32-5.08L680.32-5.08L681.92-3.24Q680.52-1.56 678.42-0.68Q676.32 0.20 673.80 0.20L673.80 0.20Q670.56 0.20 668.06-1.18Q665.56-2.56 664.16-5Q662.76-7.44 662.76-10.52L662.76-10.52Q662.76-13.60 664.10-16.04Q665.44-18.48 667.78-19.84Q670.12-21.20 673.04-21.20L673.04-21.20Q675.96-21.20 678.28-19.84Q680.60-18.48 681.92-16.06Q683.24-13.64 683.24-10.52L683.24-10.52ZM673.04-18.76Q670.00-18.76 667.94-16.82Q665.88-14.88 665.60-11.76L665.60-11.76L680.52-11.76Q680.24-14.88 678.18-16.82Q676.12-18.76 673.04-18.76L673.04-18.76Z M695.76-16.92Q696.76-19.04 698.74-20.12Q700.72-21.20 703.64-21.20L703.64-21.20L703.64-18.44L702.96-18.48Q699.64-18.48 697.76-16.44Q695.88-14.40 695.88-10.72L695.88-10.72L695.88 0L693.04 0L693.04-21.04L695.76-21.04L695.76-16.92Z M718.56 0.20Q716 0.20 713.66-0.54Q711.32-1.28 710-2.40L710-2.40L711.28-4.64Q712.60-3.60 714.60-2.94Q716.60-2.28 718.76-2.28L718.76-2.28Q721.64-2.28 723.02-3.18Q724.40-4.08 724.40-5.72L724.40-5.72Q724.40-6.88 723.64-7.54Q722.88-8.20 721.72-8.54Q720.56-8.88 718.64-9.20L718.64-9.20Q716.08-9.68 714.52-10.18Q712.96-10.68 711.86-11.88Q710.76-13.08 710.76-15.20L710.76-15.20Q710.76-17.84 712.96-19.52Q715.16-21.20 719.08-21.20L719.08-21.20Q721.12-21.20 723.16-20.66Q725.20-20.12 726.52-19.24L726.52-19.24L725.28-16.96Q722.68-18.76 719.08-18.76L719.08-18.76Q716.36-18.76 714.98-17.80Q713.60-16.84 713.60-15.28L713.60-15.28Q713.60-14.08 714.38-13.36Q715.16-12.64 716.32-12.30Q717.48-11.96 719.52-11.60L719.52-11.60Q722.04-11.12 723.56-10.64Q725.08-10.16 726.16-9Q727.24-7.84 727.24-5.80L727.24-5.80Q727.24-3.04 724.94-1.42Q722.64 0.20 718.56 0.20L718.56 0.20Z M745.08 0.20Q742.04 0.20 739.60-1.18Q737.16-2.56 735.76-5Q734.36-7.44 734.36-10.52L734.36-10.52Q734.36-13.60 735.76-16.04Q737.16-18.48 739.60-19.84Q742.04-21.20 745.08-21.20L745.08-21.20Q748.12-21.20 750.56-19.84Q753-18.48 754.38-16.04Q755.76-13.60 755.76-10.52L755.76-10.52Q755.76-7.44 754.38-5Q753-2.56 750.56-1.18Q748.12 0.20 745.08 0.20L745.08 0.20ZM745.08-2.32Q747.32-2.32 749.10-3.34Q750.88-4.36 751.88-6.24Q752.88-8.12 752.88-10.52L752.88-10.52Q752.88-12.92 751.88-14.80Q750.88-16.68 749.10-17.70Q747.32-18.72 745.08-18.72L745.08-18.72Q742.84-18.72 741.06-17.70Q739.28-16.68 738.26-14.80Q737.24-12.92 737.24-10.52L737.24-10.52Q737.24-8.12 738.26-6.24Q739.28-4.36 741.06-3.34Q742.84-2.32 745.08-2.32L745.08-2.32Z M776.28-21.20Q780.24-21.20 782.58-18.90Q784.92-16.60 784.92-12.20L784.92-12.20L784.92 0L782.08 0L782.08-11.92Q782.08-15.20 780.44-16.92Q778.80-18.64 775.76-18.64L775.76-18.64Q772.36-18.64 770.38-16.62Q768.40-14.60 768.40-11.04L768.40-11.04L768.40 0L765.56 0L765.56-21.04L768.28-21.04L768.28-17.16Q769.44-19.08 771.50-20.14Q773.56-21.20 776.28-21.20L776.28-21.20Z M804.00-21.20Q808.12-21.20 810.32-19.14Q812.52-17.08 812.52-13.04L812.52-13.04L812.52 0L809.80 0L809.80-3.28Q808.84-1.64 806.98-0.72Q805.12 0.20 802.56 0.20L802.56 0.20Q799.04 0.20 796.96-1.48Q794.88-3.16 794.88-5.92L794.88-5.92Q794.88-8.60 796.82-10.24Q798.76-11.88 803.00-11.88L803.00-11.88L809.68-11.88L809.68-13.16Q809.68-15.88 808.16-17.30Q806.64-18.72 803.72-18.72L803.72-18.72Q801.72-18.72 799.88-18.06Q798.04-17.40 796.72-16.24L796.72-16.24L795.44-18.36Q797.04-19.72 799.28-20.46Q801.52-21.20 804.00-21.20L804.00-21.20ZM803.00-2.04Q805.40-2.04 807.12-3.14Q808.84-4.24 809.68-6.32L809.68-6.32L809.68-9.76L803.08-9.76Q797.68-9.76 797.68-6L797.68-6Q797.68-4.16 799.08-3.10Q800.48-2.04 803.00-2.04L803.00-2.04Z M824.24 0L824.24-29.68L827.08-29.68L827.08 0L824.24 0Z M839.00 0L839.00-21.04L841.84-21.04L841.84 0L839.00 0ZM840.44-25.64Q839.56-25.64 838.96-26.24Q838.36-26.84 838.36-27.68L838.36-27.68Q838.36-28.48 838.96-29.08Q839.56-29.68 840.44-29.68L840.44-29.68Q841.32-29.68 841.92-29.10Q842.52-28.52 842.52-27.72L842.52-27.72Q842.52-26.84 841.92-26.24Q841.32-25.64 840.44-25.64L840.44-25.64Z M855.12-2.36L868.60-2.36L868.60 0L851.48 0L851.48-1.88L864.72-18.64L851.72-18.64L851.72-21.04L868.36-21.04L868.36-19.16L855.12-2.36Z M896.20-10.52L896.16-9.64L878.56-9.64Q878.80-6.36 881.08-4.34Q883.36-2.32 886.84-2.32L886.84-2.32Q888.80-2.32 890.44-3.02Q892.08-3.72 893.28-5.08L893.28-5.08L894.88-3.24Q893.48-1.56 891.38-0.68Q889.28 0.20 886.76 0.20L886.76 0.20Q883.52 0.20 881.02-1.18Q878.52-2.56 877.12-5Q875.72-7.44 875.72-10.52L875.72-10.52Q875.72-13.60 877.06-16.04Q878.40-18.48 880.74-19.84Q883.08-21.20 886.00-21.20L886.00-21.20Q888.92-21.20 891.24-19.84Q893.56-18.48 894.88-16.06Q896.20-13.64 896.20-10.52L896.20-10.52ZM886.00-18.76Q882.96-18.76 880.90-16.82Q878.84-14.88 878.56-11.76L878.56-11.76L893.48-11.76Q893.20-14.88 891.14-16.82Q889.08-18.76 886.00-18.76L886.00-18.76Z M922.36-29.68L925.20-29.68L925.20 0L922.48 0L922.48-4.16Q921.20-2.04 919.10-0.92Q917.00 0.20 914.36 0.20L914.36 0.20Q911.40 0.20 909.00-1.16Q906.60-2.52 905.24-4.96Q903.88-7.40 903.88-10.52L903.88-10.52Q903.88-13.64 905.24-16.08Q906.60-18.52 909.00-19.86Q911.40-21.20 914.36-21.20L914.36-21.20Q916.92-21.20 918.98-20.14Q921.04-19.08 922.36-17.04L922.36-17.04L922.36-29.68ZM914.60-2.32Q916.80-2.32 918.58-3.34Q920.36-4.36 921.38-6.24Q922.40-8.12 922.40-10.52L922.40-10.52Q922.40-12.92 921.38-14.80Q920.36-16.68 918.58-17.70Q916.80-18.72 914.60-18.72L914.60-18.72Q912.36-18.72 910.58-17.70Q908.80-16.68 907.78-14.80Q906.76-12.92 906.76-10.52L906.76-10.52Q906.76-8.12 907.78-6.24Q908.80-4.36 910.58-3.34Q912.36-2.32 914.60-2.32L914.60-2.32Z M957.24 0.20Q954.68 0.20 952.34-0.54Q950.00-1.28 948.68-2.40L948.68-2.40L949.96-4.64Q951.28-3.60 953.28-2.94Q955.28-2.28 957.44-2.28L957.44-2.28Q960.32-2.28 961.70-3.18Q963.08-4.08 963.08-5.72L963.08-5.72Q963.08-6.88 962.32-7.54Q961.56-8.20 960.40-8.54Q959.24-8.88 957.32-9.20L957.32-9.20Q954.76-9.68 953.20-10.18Q951.64-10.68 950.54-11.88Q949.44-13.08 949.44-15.20L949.44-15.20Q949.44-17.84 951.64-19.52Q953.84-21.20 957.76-21.20L957.76-21.20Q959.80-21.20 961.84-20.66Q963.88-20.12 965.20-19.24L965.20-19.24L963.96-16.96Q961.36-18.76 957.76-18.76L957.76-18.76Q955.04-18.76 953.66-17.80Q952.28-16.84 952.28-15.28L952.28-15.28Q952.28-14.08 953.06-13.36Q953.84-12.64 955.00-12.30Q956.16-11.96 958.20-11.60L958.20-11.60Q960.72-11.12 962.24-10.64Q963.76-10.16 964.84-9Q965.92-7.84 965.92-5.80L965.92-5.80Q965.92-3.04 963.62-1.42Q961.32 0.20 957.24 0.20L957.24 0.20Z M985.88-21.20Q989.84-21.20 992.18-18.90Q994.52-16.60 994.52-12.20L994.52-12.20L994.52 0L991.68 0L991.68-11.92Q991.68-15.20 990.04-16.92Q988.40-18.64 985.36-18.64L985.36-18.64Q981.96-18.64 979.98-16.62Q978-14.60 978-11.04L978-11.04L978 0L975.16 0L975.16-29.68L978-29.68L978-17.36Q979.16-19.20 981.20-20.20Q983.24-21.20 985.88-21.20L985.88-21.20Z M1006.24 0L1006.24-21.04L1009.08-21.04L1009.08 0L1006.24 0ZM1007.68-25.64Q1006.80-25.64 1006.20-26.24Q1005.60-26.84 1005.60-27.68L1005.60-27.68Q1005.60-28.48 1006.20-29.08Q1006.80-29.68 1007.68-29.68L1007.68-29.68Q1008.56-29.68 1009.16-29.10Q1009.76-28.52 1009.76-27.72L1009.76-27.72Q1009.76-26.84 1009.16-26.24Q1008.56-25.64 1007.68-25.64L1007.68-25.64Z M1031.84-21.20Q1034.80-21.20 1037.20-19.86Q1039.60-18.52 1040.96-16.08Q1042.32-13.64 1042.32-10.52L1042.32-10.52Q1042.32-7.36 1040.96-4.92Q1039.60-2.48 1037.22-1.14Q1034.84 0.20 1031.84 0.20L1031.84 0.20Q1029.28 0.20 1027.22-0.86Q1025.16-1.92 1023.84-3.96L1023.84-3.96L1023.84 7.76L1021.00 7.76L1021.00-21.04L1023.72-21.04L1023.72-16.88Q1025-18.96 1027.10-20.08Q1029.20-21.20 1031.84-21.20L1031.84-21.20ZM1031.64-2.32Q1033.84-2.32 1035.64-3.34Q1037.44-4.36 1038.46-6.24Q1039.48-8.12 1039.48-10.52L1039.48-10.52Q1039.48-12.92 1038.46-14.78Q1037.44-16.64 1035.64-17.68Q1033.84-18.72 1031.64-18.72L1031.64-18.72Q1029.40-18.72 1027.62-17.68Q1025.84-16.64 1024.82-14.78Q1023.80-12.92 1023.80-10.52L1023.80-10.52Q1023.80-8.12 1024.82-6.24Q1025.84-4.36 1027.62-3.34Q1029.40-2.32 1031.64-2.32L1031.64-2.32Z M1062.96-21.20Q1065.92-21.20 1068.32-19.86Q1070.72-18.52 1072.08-16.08Q1073.44-13.64 1073.44-10.52L1073.44-10.52Q1073.44-7.36 1072.08-4.92Q1070.72-2.48 1068.34-1.14Q1065.96 0.20 1062.96 0.20L1062.96 0.20Q1060.40 0.20 1058.34-0.86Q1056.28-1.92 1054.96-3.96L1054.96-3.96L1054.96 7.76L1052.12 7.76L1052.12-21.04L1054.84-21.04L1054.84-16.88Q1056.12-18.96 1058.22-20.08Q1060.32-21.20 1062.96-21.20L1062.96-21.20ZM1062.76-2.32Q1064.96-2.32 1066.76-3.34Q1068.56-4.36 1069.58-6.24Q1070.60-8.12 1070.60-10.52L1070.60-10.52Q1070.60-12.92 1069.58-14.78Q1068.56-16.64 1066.76-17.68Q1064.96-18.72 1062.76-18.72L1062.76-18.72Q1060.52-18.72 1058.74-17.68Q1056.96-16.64 1055.94-14.78Q1054.92-12.92 1054.92-10.52L1054.92-10.52Q1054.92-8.12 1055.94-6.24Q1056.96-4.36 1058.74-3.34Q1060.52-2.32 1062.76-2.32L1062.76-2.32Z M1083.24 0L1083.24-21.04L1086.08-21.04L1086.08 0L1083.24 0ZM1084.68-25.64Q1083.80-25.64 1083.20-26.24Q1082.60-26.84 1082.60-27.68L1082.60-27.68Q1082.60-28.48 1083.20-29.08Q1083.80-29.68 1084.68-29.68L1084.68-29.68Q1085.56-29.68 1086.16-29.10Q1086.76-28.52 1086.76-27.72L1086.76-27.72Q1086.76-26.84 1086.16-26.24Q1085.56-25.64 1084.68-25.64L1084.68-25.64Z M1108.72-21.20Q1112.68-21.20 1115.02-18.90Q1117.36-16.60 1117.36-12.20L1117.36-12.20L1117.36 0L1114.52 0L1114.52-11.92Q1114.52-15.20 1112.88-16.92Q1111.24-18.64 1108.20-18.64L1108.20-18.64Q1104.80-18.64 1102.82-16.62Q1100.84-14.60 1100.84-11.04L1100.84-11.04L1100.84 0L1098 0L1098-21.04L1100.72-21.04L1100.72-17.16Q1101.88-19.08 1103.94-20.14Q1106-21.20 1108.72-21.20L1108.72-21.20Z M1145.92-21.04L1148.64-21.04L1148.64-2.56Q1148.64 2.80 1146.02 5.38Q1143.40 7.96 1138.12 7.96L1138.12 7.96Q1135.20 7.96 1132.58 7.10Q1129.96 6.24 1128.32 4.72L1128.32 4.72L1129.76 2.56Q1131.28 3.92 1133.46 4.68Q1135.64 5.44 1138.04 5.44L1138.04 5.44Q1142.04 5.44 1143.92 3.58Q1145.80 1.72 1145.80-2.20L1145.80-2.20L1145.80-4.88Q1144.48-2.88 1142.34-1.84Q1140.20-0.80 1137.60-0.80L1137.60-0.80Q1134.64-0.80 1132.22-2.10Q1129.80-3.40 1128.42-5.74Q1127.04-8.08 1127.04-11.04L1127.04-11.04Q1127.04-14 1128.42-16.32Q1129.80-18.64 1132.20-19.92Q1134.60-21.20 1137.60-21.20L1137.60-21.20Q1140.28-21.20 1142.44-20.12Q1144.60-19.04 1145.92-17L1145.92-17L1145.92-21.04ZM1137.88-3.32Q1140.16-3.32 1142.00-4.30Q1143.84-5.28 1144.86-7.04Q1145.88-8.80 1145.88-11.04L1145.88-11.04Q1145.88-13.28 1144.86-15.02Q1143.84-16.76 1142.02-17.74Q1140.20-18.72 1137.88-18.72L1137.88-18.72Q1135.60-18.72 1133.78-17.76Q1131.96-16.80 1130.94-15.04Q1129.92-13.28 1129.92-11.04L1129.92-11.04Q1129.92-8.80 1130.94-7.04Q1131.96-5.28 1133.78-4.30Q1135.60-3.32 1137.88-3.32L1137.88-3.32Z M1160.92-4.16Q1161.84-4.16 1162.44-3.54Q1163.04-2.92 1163.04-2L1163.04-2Q1163.04-1.52 1162.90-0.96Q1162.76-0.40 1162.48 0.32L1162.48 0.32L1160.80 5.84L1158.88 5.84L1160.24 0.04Q1159.60-0.16 1159.20-0.70Q1158.80-1.24 1158.80-2L1158.80-2Q1158.80-2.92 1159.40-3.54Q1160.00-4.16 1160.92-4.16L1160.92-4.16Z"/></g>
</svg>
</g><g opacity="1" transform="rotate(0 269.5935 301.5334)">
<svg width="385.3997" height="100" x="269.5935" y="301.5334" version="1.1" preserveAspectRatio="none" viewBox="0.5469 -28.5156 129.9609 37.6172">
  <g transform="matrix(1 0 0 1 0 0)" class="aD6z1nYkhcolor"><path id="id-D6z1nYkh8" d="M7.07 0L7.07-23.24Q5.61-23.22 4.42-23.20Q3.24-23.18 2.40-23.14L2.40-23.14Q1.43-23.11 0.66-23.07L0.66-23.07Q0.63-23.30 0.61-23.54L0.61-23.54Q0.55-23.95 0.55-24.55L0.55-24.55Q0.55-24.90 0.60-25.40Q0.64-25.90 0.78-26.52L0.78-26.52L18.16-26.52Q18.18-26.33 18.20-26.11L18.20-26.11Q18.22-25.94 18.24-25.71Q18.26-25.49 18.26-25.27L18.26-25.27Q18.26-24.88 18.19-24.26Q18.13-23.63 17.95-23.09L17.95-23.09Q17.79-23.11 17.14-23.13Q16.48-23.16 15.57-23.18Q14.65-23.20 13.57-23.22Q12.50-23.24 11.48-23.24L11.48-23.24L11.48 0L7.07 0Z M20.37-20.18L23.96-20.18L25.98-18.07Q26.19-18.55 26.53-18.99Q26.88-19.43 27.33-19.77Q27.79-20.10 28.37-20.29Q28.95-20.49 29.63-20.49L29.63-20.49Q30.20-20.49 30.72-20.40Q31.25-20.31 31.88-20.10L31.88-20.10Q31.89-20.06 31.92-19.79Q31.95-19.51 31.95-19.10L31.95-19.10Q31.95-18.79 31.91-18.37Q31.88-17.95 31.79-17.51Q31.70-17.07 31.53-16.64Q31.37-16.21 31.11-15.90L31.11-15.90L30.74-15.80Q30.35-16.00 29.87-16.13Q29.39-16.27 28.89-16.27L28.89-16.27Q28.11-16.27 27.58-16.16Q27.05-16.05 26.72-15.94L26.72-15.94Q26.33-15.80 26.09-15.63L26.09-15.63L26.09 0L21.91 0L21.91-16.39L20.37-17.97L20.37-20.18Z M33.77-5.70L33.77-5.70Q33.77-7.32 34.24-8.46Q34.71-9.59 35.62-10.31Q36.52-11.04 37.82-11.40Q39.12-11.76 40.80-11.86L40.80-11.86L45.16-12.09L45.16-13.65Q45.16-14.71 44.97-15.39Q44.79-16.07 44.36-16.48Q43.93-16.89 43.21-17.06Q42.50-17.23 41.45-17.23L41.45-17.23Q40.39-17.23 39.44-16.99Q38.50-16.76 37.79-16.48L37.79-16.48Q36.95-16.15 36.25-15.74L36.25-15.74Q35.82-16.35 35.57-16.90Q35.31-17.46 35.18-17.91L35.18-17.91Q35-18.42 34.94-18.89L34.94-18.89Q35.88-19.36 36.95-19.71L36.95-19.71Q37.89-20.02 39.11-20.27Q40.33-20.53 41.68-20.53L41.68-20.53Q43.91-20.53 45.37-20.14Q46.84-19.75 47.71-18.96Q48.57-18.16 48.92-16.96Q49.26-15.76 49.26-14.12L49.26-14.12L49.26-3.22L50.90-1.23L50.90 0L47.29 0L45.78-1.74L45.08-1.74Q44.98-1.64 44.56-1.30Q44.14-0.96 43.49-0.58Q42.83-0.20 42.00 0.10Q41.17 0.39 40.23 0.39L40.23 0.39Q38.77 0.39 37.58-0.05Q36.39-0.49 35.54-1.30Q34.69-2.11 34.23-3.23Q33.77-4.36 33.77-5.70ZM38.03-6.05L38.03-6.05Q38.03-5.16 38.28-4.56Q38.54-3.96 38.99-3.61Q39.45-3.26 40.11-3.13Q40.76-2.99 41.56-2.99L41.56-2.99Q42.30-2.99 42.96-3.17Q43.61-3.36 44.10-3.59L44.10-3.59Q44.67-3.85 45.16-4.20L45.16-4.20L45.16-9.45L41.23-9.20Q40.31-9.14 39.70-8.89Q39.08-8.63 38.71-8.22Q38.34-7.81 38.18-7.26Q38.03-6.70 38.03-6.05Z M53.44-10.02L53.44-10.02Q53.44-12.60 54.06-14.56Q54.69-16.52 55.89-17.85Q57.09-19.18 58.84-19.85Q60.59-20.53 62.83-20.53L62.83-20.53Q63.65-20.53 64.49-20.37Q65.33-20.21 66.02-20.04L66.02-20.04Q66.80-19.82 67.54-19.55L67.54-19.55Q67.48-19.00 67.36-18.42L67.36-18.42Q67.27-17.91 67.08-17.31Q66.89-16.72 66.62-16.15L66.62-16.15Q66.09-16.37 65.49-16.56L65.49-16.56Q64.96-16.72 64.28-16.86Q63.59-16.99 62.83-16.99L62.83-16.99Q61.52-16.99 60.56-16.51Q59.59-16.04 58.95-15.13Q58.30-14.22 57.99-12.93Q57.68-11.64 57.68-10.04L57.68-10.04Q57.68-6.52 59.03-4.71Q60.39-2.89 63.03-2.89L63.03-2.89Q63.81-2.89 64.51-3.02Q65.21-3.14 65.78-3.30L65.78-3.30Q66.43-3.50 66.99-3.73L66.99-3.73Q67.19-3.30 67.34-2.79L67.34-2.79Q67.48-2.34 67.59-1.77Q67.70-1.19 67.68-0.53L67.68-0.53Q66.95-0.27 66.17-0.06L66.17-0.06Q65.51 0.12 64.68 0.25Q63.85 0.39 63.03 0.39L63.03 0.39Q58.44 0.39 55.94-2.23Q53.44-4.84 53.44-10.02Z M71.31 0L71.31-28.13L75.29-28.13L75.29-13.26L75.10-10.43L76.13-11.66L82.40-19.96L87.13-19.96L80.78-11.91L79.16-10.37L80.43-9.22L87.48 0L82.73 0L76.02-9.02L75.10-10.20L75.29-6.64L75.29 0L71.31 0Z M92.89-23.34L92.89-23.34Q92.34-23.34 91.87-23.54Q91.39-23.73 91.03-24.06Q90.66-24.39 90.45-24.83Q90.23-25.27 90.23-25.78L90.23-25.78Q90.23-26.31 90.45-26.76Q90.66-27.21 91.03-27.54Q91.39-27.87 91.87-28.06Q92.34-28.24 92.89-28.24L92.89-28.24Q93.44-28.24 93.93-28.06Q94.41-27.87 94.78-27.54Q95.14-27.21 95.35-26.76Q95.57-26.31 95.57-25.78L95.57-25.78Q95.57-25.27 95.35-24.83Q95.14-24.39 94.78-24.06Q94.41-23.73 93.93-23.54Q93.44-23.34 92.89-23.34ZM90.64-3.36L90.64-19.96L94.71-19.96L94.71-3.28L95.86-2.46L95.86 0L94.75 0L94.71-0.04L94.71 0Q92.77 0 91.71-0.78Q90.64-1.56 90.64-3.36L90.64-3.36Z M102.09 0L102.09-16.93L99.20-16.93Q99.14-17.40 99.12-17.81Q99.10-18.22 99.10-18.55L99.10-18.55Q99.10-19.16 99.16-19.55L99.16-19.55Q99.18-19.77 99.22-19.96L99.22-19.96L102.09-19.96L102.09-22.11Q102.09-23.34 102.47-24.50Q102.85-25.66 103.64-26.55Q104.43-27.44 105.64-27.98Q106.86-28.52 108.54-28.52L108.54-28.52Q109.36-28.52 109.96-28.44Q110.57-28.36 111.00-28.26L111.00-28.26Q111.50-28.14 111.86-28.01L111.86-28.01Q111.82-27.52 111.72-26.99L111.72-26.99Q111.62-26.54 111.44-25.97Q111.25-25.39 110.94-24.80L110.94-24.80Q110.64-24.88 110.29-24.96L110.29-24.96Q110-25.02 109.61-25.08Q109.22-25.14 108.83-25.14L108.83-25.14Q107.50-25.14 106.85-24.40Q106.19-23.67 106.19-21.99L106.19-21.99L106.19-19.96L110.59-19.96Q110.61-19.88 110.63-19.77L110.63-19.77Q110.64-19.67 110.66-19.52Q110.68-19.38 110.68-19.18L110.68-19.18Q110.68-18.79 110.58-18.22Q110.47-17.66 110.12-16.93L110.12-16.93L106.19-16.93L106.19 0L102.09 0Z M118.14 0L112.15-19.96L116.54-19.96L120.35-5.37L121.19-1.46L122.05-5.37L125.98-19.96L130.51-19.96L121.62 9.10L117.38 9.10L120.64 0L118.14 0Z"/></g>
</svg>
</g></svg></svg>