<svg xmlns="http://www.w3.org/2000/svg" x="0px" y="0px" width="128px" height="128px" viewBox="0 0 128 128" enable-background="new 0 0 128 128">
  <rect x="5" y="6" fill="#FFF" width="119" height="116"/>
  <path fill="#ADCE2C" d="M10,0C4.477,0,0,4.477,0,10v108c0,5.523,4.477,10,10,10h108c5.521,0,10-4.477,10-10V10	c0-5.523-4.479-10-10-10H10z M121,15.901v96.196c0,4.916-3.984,8.901-8.9,8.901H15.901C10.985,121,7,117.015,7,112.099V15.902	c0-4.916,3.985-8.901,8.901-8.901h96.197C117.016,7,121,10.985,121,15.901z"/>
  <polygon fill="#ADCE2C" points="73.251,72.253 83.316,60.669 94.879,60.669 96.91,57.143 81.555,57.143 74.301,65.646 76.332,57.143 72.471,57.121 64.904,65.892 67.023,57.143 58.609,57.121 52.516,67.521 50.351,57.143 45.553,57.143 39.125,68.839 37.518,61.875 33.991,67.813 35.285,72.253 42.227,72.253 47.583,62.991 49.682,72.231 54.615,72.253 61.244,60.759 58.609,72.253 63.475,72.253 70.35,64.375 68.452,72.253"/>
  <polygon fill="#ADCE2C" points="21.76,80.199 35.576,57.143 29.773,57.121 16.313,80.199"/>
  <polygon fill="#ADCE2C" points="16.425,57.143 20.6,64.352 24.773,57.143"/>
  <polygon fill="#ADCE2C" points="91.645,66.495 93.339,63.102 82.425,63.102 77.448,72.188 88.184,72.231 90.104,68.883 84.01,68.883 85.259,66.495"/>
  <polygon fill="#ADCE2C" points="99.968,62.276 102.245,72.253 106.887,72.253 115.682,57.143 110.814,57.143 104.945,67.276 102.579,57.143 98.249,57.143 89.969,72.231 94.365,72.231"/>
  <polygon fill="#015DAE" points="34.058,68.08 43.767,51.496 38.946,51.496 29.014,68.08"/>
</svg>
