<svg xmlns="http://www.w3.org/2000/svg" x="0px" y="0px" width="128px" height="128px" viewBox="0 0 128 128" enable-background="new 0 0 128 128">
  <rect x="5" y="6" fill="#FFF" width="119" height="116"/>
  <path fill="#233F8A" d="M10,0C4.477,0,0,4.477,0,10v108c0,5.523,4.477,10,10,10h108c5.521,0,10-4.477,10-10V10	c0-5.523-4.479-10-10-10H10z M121,15.901v96.196c0,4.916-3.984,8.901-8.9,8.901H15.901C10.985,121,7,117.015,7,112.099V15.902	c0-4.916,3.985-8.901,8.901-8.901h96.197C117.016,7,121,10.985,121,15.901z"/>
  <polygon fill="#E04C26" points="23.901,52.049 24.795,53.084 49.889,53.084 50.736,49.815 21.62,49.815 21.032,52.049"/>
  <path fill="#233F8A" d="M112.283,58.54l1.199-4.633l-3.693-3.552h-6.373l-5.855,3.457l14.488,0.023l-0.283,1.152l-14.486,0.023	c-0.281,1.152-0.611,2.281-0.895,3.457l5.785,0.023c-0.141,0.329-0.212,0.706-0.307,1.058l-5.736,0.023	c-0.307,1.151-0.611,2.305-0.895,3.48l14.486,0.024c-0.117,0.376-0.234,0.753-0.328,1.129L95.656,64.23	c0.799,0.847,1.621,1.646,2.396,2.47l5.41,0.022c-0.048,0.354-0.188,0.683-0.234,1.035l5.291,0.024	c-0.095,0.376-0.211,0.729-0.306,1.082h-5.292l-0.354,1.363l-2.139-0.023l0.327-1.34l-7.008,0.023l-0.942,3.575l14.514,0.023	l-0.282,1.058H92.552l0.023,0.022l4.114,3.081h6.397l5.362-3.081l2.587-10.136l-3.292-3.01l-4.773-0.024	c0.281-1.151,0.563-2.328,0.893-3.457l2.162,0.023c-0.139,0.541-0.28,1.058-0.422,1.599L112.283,58.54z"/>
  <path fill="#233F8A" d="M63.812,66.748v-0.023l1.624-6.303l-6.115-0.023c0.282-1.152,0.564-2.328,0.917-3.481h6.114v-0.023	l1.67-6.443H54.358l-0.894,3.48L65.6,53.955c-0.096,0.376-0.166,0.752-0.285,1.129H53.183l-0.918,3.481l5.856,0.023l-0.282,1.059	h-5.856c-0.282,1.151-0.611,2.305-0.894,3.48l12.136,0.023c-0.094,0.376-0.165,0.775-0.283,1.129H50.807l-0.917,3.505l5.856,0.023	l-0.282,1.081h-5.855c-0.306,1.199-0.612,2.423-0.917,3.599l12.182,0.023l-0.306,1.082l-12.136,0.024l-0.799,3.057h13.664v-0.022	l1.623-6.374l-6.138-0.023c0.306-1.176,0.588-2.328,0.917-3.504h6.113V66.748z"/>
  <path fill="#233F8A" d="M82.814,73.568c-0.282,1.034-0.519,2.069-0.799,3.081h6.442l6.75-26.152h-8.373l-1.928,3.457l8.325,0.023	l-0.282,1.13l-8.728,0.023l-1.902,3.435l9.713,0.023l-0.281,1.058H81.686l-0.729,1.317l-0.609-10.56h-8.516l-0.895,3.48l8.351,0.024	v1.151h-8.679l-0.895,3.457l9.829,0.024L79.521,59.6H69.457l-0.896,3.481l4.895,0.022c-0.096,0.376-0.164,0.776-0.281,1.13h-4.895	c-0.305,1.198-0.633,2.352-0.916,3.527l4.892,0.024c-0.116,0.353-0.188,0.729-0.282,1.082h-4.914l-0.916,3.622l4.938,0.023	l-0.282,1.059h-4.914l-0.802,3.057h6.491l4.022-15.451c0.023,0.635,0,1.293,0,1.952l7.901,0.023	c-0.166,0.376-0.377,0.753-0.563,1.129h-7.338v3.505l5.551,0.022c-0.189,0.354-0.354,0.729-0.541,1.082h-5.01v3.599l3.174,0.023	c-0.187,0.354-0.353,0.729-0.539,1.082h-2.635v3.058l2.422-0.024l7.784-15.334c-0.118,0.588-0.282,1.223-0.399,1.835l5.479,0.023	c-0.116,0.376-0.211,0.753-0.306,1.129h-5.387l-0.871,3.505l5.34,0.022c-0.069,0.354-0.165,0.729-0.282,1.082l-5.409,0.023	l-0.847,3.575l5.339,0.023l-0.281,1.059h-5.363V73.568z"/>
  <polygon fill="#E04C26" points="14.518,77.284 43.586,77.261 43.728,76.814 14.612,76.814"/>
  <polygon fill="#E04C26" points="46.032,67.924 35.284,67.924 16.94,67.948 16.752,68.771 38.341,68.771 40.693,71.499 45.091,71.499"/>
  <polygon fill="#E04C26" points="44.832,72.557 15.74,72.534 15.646,73.027 42.011,73.051 44.056,75.45"/>
  <polygon fill="#E04C26" points="49.537,54.471 20.421,54.471 19.927,56.329 27.593,56.329 28.91,57.858 48.643,57.858"/>
  <polygon fill="#E04C26" points="48.336,59.105 19.221,59.105 18.868,60.539 31.239,60.539 32.909,62.468 47.466,62.468"/>
  <polygon fill="#E04C26" points="47.185,63.62 18.069,63.62 17.811,64.585 34.743,64.585 36.719,66.889 46.314,66.889"/>
</svg>
