<svg enable-background="new 0 0 128 128" height="128" viewBox="0 0 128 128" width="128" xmlns="http://www.w3.org/2000/svg"><path d="m5 6h119v116h-119z" fill="#fff"/><g fill="#f90"><path d="m118 0h-108c-5.5 0-10 4.5-10 10v108c0 5.5 4.5 10 10 10h108c5.5 0 10-4.5 10-10v-108c0-5.5-4.5-10-10-10zm3 112.1c0 4.9-4 8.9-8.9 8.9h-96.2c-4.9 0-8.9-4-8.9-8.9v-96.2c0-4.9 4-8.9 8.9-8.9h96.2c4.9 0 8.9 4 8.9 8.9z"/><path clip-rule="evenodd" d="m75.2 75.9c-5.4 4-13.2 6.1-20 6.1-9.4 0-17.9-3.5-24.3-9.3-.5-.5-.1-1.1.6-.7 6.9 4 15.5 6.5 24.3 6.5 6 0 12.5-1.2 18.6-3.8.9-.5 1.6.5.8 1.2z" fill-rule="evenodd"/><path clip-rule="evenodd" d="m77.4 73.3c-.7-.9-4.6-.4-6.3-.2-.5.1-.6-.4-.1-.7 3.1-2.2 8.1-1.5 8.7-.8s-.2 5.8-3 8.2c-.4.4-.9.2-.7-.3.6-1.7 2.1-5.3 1.4-6.2z" fill-rule="evenodd"/></g><path clip-rule="evenodd" d="m71.2 57.1v-2.1c0-.3.2-.5.5-.5h9.4c.3 0 .5.2.5.5v1.8c0 .3-.3.7-.7 1.3l-4.9 7c1.8 0 3.7.2 5.4 1.2.4.2.5.5.5.8v2.2c0 .3-.3.7-.7.5-2.9-1.5-6.8-1.7-10 0-.3.2-.7-.2-.7-.5v-2.1c0-.3 0-.9.4-1.4l5.7-8.1h-4.9c-.2-.1-.5-.3-.5-.6zm-34.4 13.1h-2.8c-.3 0-.5-.2-.5-.5v-14.7c0-.3.2-.5.6-.5h2.7c.3 0 .5.2.5.5v1.9h.1c.7-1.9 2-2.7 3.8-2.7s2.9.9 3.7 2.7c.7-1.9 2.3-2.7 4-2.7 1.2 0 2.5.5 3.3 1.6.9 1.2.7 3 .7 4.6v9.3c0 .3-.2.5-.6.5h-2.9c-.3 0-.5-.2-.5-.5v-7.8c0-.6.1-2.2-.1-2.8-.2-1-.9-1.3-1.7-1.3-.7 0-1.4.5-1.7 1.2s-.3 2-.3 2.8v7.8c0 .3-.2.5-.6.5h-2.9c-.3 0-.5-.2-.5-.5v-7.8c0-1.6.3-4.1-1.8-4.1s-2 2.4-2 4.1v7.8c.1.4-.2.6-.5.6zm53.1-16c4.3 0 6.6 3.7 6.6 8.3 0 4.5-2.5 8.1-6.6 8.1-4.2 0-6.5-3.7-6.5-8.2 0-4.7 2.3-8.2 6.5-8.2zm0 3c-2.1 0-2.2 2.9-2.2 4.7s0 5.6 2.2 5.6 2.3-3.1 2.3-5c0-1.2-.1-2.7-.4-3.9-.4-1-1-1.4-1.9-1.4zm12 13h-2.9c-.3 0-.5-.2-.5-.5v-14.7c0-.3.3-.5.6-.5h2.7c.3 0 .5.2.5.4v2.3h.1c.8-2 1.9-3 3.9-3 1.3 0 2.5.5 3.3 1.7.7 1.2.7 3.2.7 4.6v9.3c0 .3-.3.5-.5.5h-2.9c-.3 0-.5-.2-.5-.5v-8c0-1.6.2-4-1.8-4-.7 0-1.3.5-1.7 1.2-.4.9-.5 1.8-.5 2.8v7.9c.1.3-.2.5-.5.5zm-38.2-7c0 1.1 0 2-.5 3-.5.8-1.2 1.3-2 1.3-1.1 0-1.7-.8-1.7-2.1 0-2.4 2.2-2.9 4.3-2.9v.7zm2.9 7c-.2.2-.5.2-.7.1-1-.8-1.1-1.2-1.6-1.9-1.6 1.6-2.7 2.1-4.7 2.1-2.4 0-4.3-1.5-4.3-4.5 0-2.3 1.3-3.9 3.1-4.7 1.6-.7 3.7-.8 5.4-1v-.4c0-.7.1-1.5-.3-2.1-.3-.5-1-.7-1.6-.7-1.1 0-2.1.6-2.3 1.7 0 .3-.2.5-.5.5l-2.9-.3c-.2-.1-.5-.2-.4-.6.6-3.4 3.7-4.4 6.4-4.4 1.4 0 3.2.4 4.3 1.4 1.4 1.3 1.3 3 1.3 4.9v4.5c0 1.3.6 1.9 1.1 2.7.2.3.2.6 0 .8-.7.5-1.7 1.4-2.3 1.9zm-40.5-7c0 1.1 0 2-.5 3-.5.8-1.2 1.3-2 1.3-1.1 0-1.7-.8-1.7-2.1 0-2.4 2.2-2.9 4.3-2.9v.7zm2.9 7c-.2.2-.5.2-.7.1-1-.8-1.1-1.2-1.6-1.9-1.6 1.6-2.7 2.1-4.7 2.1-2.4 0-4.3-1.5-4.3-4.5 0-2.3 1.3-3.9 3.1-4.7 1.6-.7 3.7-.8 5.4-1v-.4c0-.7.1-1.5-.3-2.1-.3-.5-1-.7-1.6-.7-1.1 0-2.1.6-2.3 1.7 0 .3-.2.5-.5.5l-2.9-.3c-.2-.1-.5-.2-.4-.6.6-3.4 3.7-4.4 6.4-4.4 1.4 0 3.2.4 4.3 1.4 1.4 1.3 1.3 3 1.3 4.9v4.5c0 1.3.6 1.9 1.1 2.7.2.3.2.6 0 .8-.7.5-1.7 1.4-2.3 1.9z" fill-rule="evenodd"/></svg>