<svg xmlns="http://www.w3.org/2000/svg" x="0px" y="0px" width="128px" height="128px" viewBox="0 0 128 128" enable-background="new 0 0 128 128">
  <rect x="5" y="6" fill="#FFF" width="119" height="116"/>
  <path fill="#483092" d="M118,0H10C4.477,0,0,4.477,0,10v108c0,5.523,4.477,10,10,10h108c5.521,0,10-4.477,10-10V10	C128,4.477,123.521,0,118,0z M121,112.099c0,4.916-3.984,8.901-8.9,8.901H15.901C10.985,121,7,117.015,7,112.099V15.901	C7,10.985,10.985,7,15.901,7h96.197c4.916,0,8.901,3.985,8.901,8.901L121,112.099L121,112.099z"/>
  <path fill="#483092" d="M29.211,75.986c-0.002-3.63-0.009-7.258,0.003-10.888c2.264,0.003,4.526-0.003,6.79,0.003	c-0.471,1.977-0.399,4.101,0.316,6.011c0.71,1.822,2.027,3.401,3.723,4.382c1.391,0.845,3.018,1.269,4.639,1.328	c0.311,0.049,0.629,0.044,0.939-0.005c1.608-0.043,3.24-0.413,4.631-1.245c1.754-1.034,3.048-2.748,3.753-4.64	c-1.934-0.008-3.867,0-5.801-0.004c-0.178-0.029-0.241,0.162-0.333,0.274c-0.344,0.497-0.842,0.907-1.438,1.057	c-0.537,0.116-1.1,0.197-1.646,0.121c-1.691-0.162-3.095-1.744-3.095-3.436c3.976-0.003,7.951-0.005,11.926,0.001	c0.346,2.671,1.796,5.248,4.101,6.696c1.477,0.968,3.29,1.386,5.042,1.23c1.185-0.134,2.331-0.626,3.217-1.425	c0.405-0.314,0.694-0.743,1.029-1.126c0.018,0.551,0.014,1.104,0.002,1.654c2.042,0.029,4.084,0.009,6.125,0.011	c-0.01-8.63-0.009-17.261-0.001-25.89c-2.038,0.001-4.079-0.014-6.12,0.008c0.006,3.519,0.014,7.038-0.004,10.558	c-0.226-0.189-0.423-0.409-0.632-0.616c-0.553-0.5-1.224-0.849-1.919-1.106c-1.496-0.457-3.113-0.454-4.625-0.074	c-1.384,0.387-2.674,1.134-3.665,2.18c-1.024,1.023-1.722,2.327-2.189,3.688c-0.552-1.668-1.497-3.246-2.896-4.332	c-1.581-1.275-3.635-1.834-5.64-1.88c-2.353-0.076-4.81,0.554-6.643,2.089c-0.754,0.588-1.333,1.36-1.857,2.151	c-0.014-1.076,0.011-2.152-0.012-3.228c-2.574,0.007-5.147,0.007-7.721,0c0-1.22-0.014-2.439,0.008-3.658	c2.799,0.003,5.599,0.005,8.398-0.002c0.004-1.926,0.003-3.852,0.001-5.777c-5.095-0.004-10.19-0.004-15.284,0	c-0.002,8.629-0.001,17.26-0.001,25.889C24.625,75.991,26.918,75.994,29.211,75.986z M60.085,65.838	c0.383-1.301,1.498-2.431,2.886-2.576c0.976-0.116,2.003,0.207,2.693,0.918c0.758,0.836,1.072,1.975,1.16,3.078	c0.074,0.979-0.069,1.99-0.492,2.884c-0.369,0.775-1.037,1.438-1.878,1.675c-1.283,0.438-2.822,0.019-3.65-1.068	C59.686,69.397,59.526,67.458,60.085,65.838z M43.467,62.935c1.232-0.76,2.966-0.56,3.998,0.453	c0.448,0.487,0.746,1.103,0.887,1.746c-2.151,0.015-4.301,0.014-6.452,0C42.112,64.238,42.665,63.401,43.467,62.935z"/>
  <path fill="#F57921" d="M87.463,55.874c0.006-1.925,0.006-3.85,0-5.775c-4.775-0.006-9.553-0.004-14.328-0.001	c-0.008,8.629-0.009,17.26,0.002,25.891c7.146,0.007,14.295-0.003,21.442,0.003c0.128-0.014,0.292,0.04,0.396-0.063	c1.076-1.247,2.188-2.467,3.27-3.714c0.078-0.09,0.201-0.277,0.316-0.125c1.117,1.273,2.254,2.53,3.381,3.794	c0.095,0.126,0.259,0.109,0.398,0.109c2.497-0.015,4.994,0.016,7.491-0.015c-2.281-2.591-4.604-5.146-6.896-7.726	c-0.142-0.184-0.346-0.315-0.442-0.528c0.019-0.129,0.146-0.21,0.225-0.306c2.238-2.512,4.472-5.029,6.712-7.541	c0.094-0.106,0.201-0.205,0.258-0.34c-2.369,0.004-4.735,0.002-7.104,0.001c-0.132,0.008-0.275-0.026-0.396,0.024	c-1.146,1.299-2.275,2.614-3.424,3.914c-1.199-1.3-2.398-2.606-3.563-3.935c-5.335-0.008-10.673,0.003-16.007-0.007	c0-1.22-0.019-2.441,0.009-3.661C81.954,55.881,84.708,55.882,87.463,55.874z M79.195,65.098c2.757,0.001,5.512,0.004,8.268-0.001	c0.008-1.81,0-3.62,0.003-5.431c0.169,0.138,0.31,0.303,0.448,0.471c2.26,2.529,4.506,5.073,6.775,7.595	c-2.383,2.735-4.834,5.415-7.225,8.146c-0.003-1.905,0.006-3.812-0.003-5.717c-2.757,0-5.513,0.003-8.271,0	C79.188,68.473,79.184,66.784,79.195,65.098z"/>
</svg>
