<?xml version="1.0" encoding="UTF-8"?>
<svg width="128px" height="128px" viewBox="0 0 128 128" version="1.1" xmlns="http://www.w3.org/2000/svg" xmlns:xlink="http://www.w3.org/1999/xlink">
    <title>ukrposhta</title>
    <g id="UkrPoshta" stroke="none" stroke-width="1" fill="none" fill-rule="evenodd">
        <g id="ukrposhta" fill-rule="nonzero">
            <polygon id="Path" fill="#FFFFFF" points="5 6 124 6 124 122 5 122"></polygon>
            <path d="M118,0 L10,0 C4.5,0 0,4.5 0,10 L0,118 C0,123.5 4.5,128 10,128 L118,128 C123.5,128 128,123.5 128,118 L128,10 C128,4.5 123.5,0 118,0 Z M121,112.1 C121,117 117,121 112.1,121 L15.9,121 C11,121 7,117 7,112.1 L7,15.9 C7,11 11,7 15.9,7 L112.1,7 C117,7 121,11 121,15.9 L121,112.1 Z" id="Shape" fill="#FABC26"></path>
            <path d="M84.0414369,49.1124537 C84.0397334,49.1128829 62.3541952,54.0576155 62.3541952,54.0576155 C55.8905162,55.5314869 51.8357972,62.006308 53.2981025,68.5196441 C54.7612596,75.0329802 61.1871406,79.117722 67.6508196,77.6442796 C74.1149245,76.1703009 78.1692175,69.6955871 76.7068058,63.1826802 C75.974056,59.9217744 73.9971649,57.2719599 71.3944233,55.6211766 C71.3939974,55.6211766 71.3877155,55.6158124 71.3852666,55.614525 C71.3087123,55.5591663 71.2592021,55.4690475 71.2592021,55.3676638 C71.2592021,55.2256195 71.3565188,55.106212 71.4880134,55.0743486 C71.4884393,55.0739195 81.1350333,52.8758791 81.1367369,52.8758791 C81.3662935,52.8234171 81.6045809,52.9126776 81.7456581,53.1004251 C81.7464034,53.1021416 81.746084,53.1008542 81.746084,53.1008542 C84.4036593,56.6442395 86.0000146,61.0655321 86.0000146,65.8476217 C86.0000146,77.1094675 77.2679204,86.312957 66.2537824,86.9666401 C66.155614,86.9721116 65.5587243,86.9956069 65.3570637,86.9985036 C60.4804768,87.075641 55.5360663,85.6666765 51.236416,82.6325697 C40.3782147,74.9718282 37.7400856,59.8929149 45.3421247,48.9523856 L64.6358131,21.1879942 C64.7182235,21.0748429 64.8508893,21.001504 64.9997391,21.001504 C65.1498665,21.001504 65.2829582,21.0761002 65.3649427,21.1900894 C65.3649427,21.1900894 84.310921,48.414784 84.3126246,48.4172516 C84.360857,48.4893466 84.3896049,48.5768906 84.3896049,48.6707643 C84.3896049,48.8861912 84.2410745,49.0664288 84.0414369,49.1124537" id="path14" fill="#FABC26" transform="translate(63.500015, 54.001504) scale(-1, 1) rotate(-180.000000) translate(-63.500015, -54.001504) "></path>
            <g id="Group" transform="translate(17.905865, 98.784250)" fill="#2C2E2C">
                <path d="M2.3691292,11.21575 C2.48356374,11.21575 2.55941598,11.1754735 2.59736835,11.0946416 L5.76904212,5.34269042 L5.92079911,5.34269042 L8.61783204,11.0142002 C8.67462936,11.1556142 8.78885392,11.21575 8.94076839,11.21575 L10.877914,11.21575 C11.0489359,11.21575 11.1436331,11.0340595 11.0675709,10.893036 L5.48384817,0.397496261 C5.42705085,0.276555225 5.31324624,0.21575 5.16106931,0.21575 L3.26192852,0.21575 C3.05295427,0.21575 3.03410932,0.357163988 3.11017153,0.518660435 L4.61031375,3.24357131 L0.128312106,10.953395 C0.0520399158,11.0946416 0.109257182,11.21575 0.242116722,11.21575 L2.3691292,11.21575" id="path16" transform="translate(5.594135, 5.715750) scale(-1, 1) rotate(-180.000000) translate(-5.594135, -5.715750) "></path>
                <path d="M14.0837788,11.21575 C14.2594593,11.21575 14.3570056,11.1151146 14.3570056,10.9333683 L14.3570056,6.61681092 L18.7470771,11.0545325 C18.8639817,11.1556142 19.0394465,11.21575 19.2540593,11.21575 L21.6342659,11.21575 C21.8098925,11.21575 21.8686684,11.0545325 21.7317584,10.9131185 L17.0687297,6.39194316 L22.0245592,0.518660435 C22.1610378,0.37763694 22.0833351,0.21575 21.9076546,0.21575 L19.5664341,0.21575 C19.3518213,0.21575 19.1959305,0.276555225 19.0783788,0.417969213 L15.3657396,4.94851636 L14.3570056,3.97791992 L14.3570056,0.498577975 C14.3570056,0.316831714 14.2594593,0.21575 14.0837788,0.21575 L12.3670923,0.21575 C12.1914118,0.21575 12.094135,0.316831714 12.094135,0.498577975 L12.094135,10.9333683 C12.094135,11.1151146 12.1914118,11.21575 12.3670923,11.21575 L14.0837788,11.21575" id="path18" transform="translate(17.094135, 5.715750) scale(-1, 1) rotate(-180.000000) translate(-17.094135, -5.715750) "></path>
                <path d="M28.5090871,5.36254974 C29.5407993,5.36254974 30.1326197,6.12936499 30.1326197,7.1990349 C30.1326197,8.24873392 29.5407993,8.99529936 28.5090871,8.99529936 L26.056258,8.99529936 L26.056258,5.36254974 L28.5090871,5.36254974 Z M28.5090871,11.21575 C30.555215,11.21575 32.094135,9.4598736 32.094135,7.1990349 C32.094135,4.85786637 30.555215,3.14226645 28.5090871,3.14226645 L26.056258,3.14226645 L26.056258,0.498354837 C26.056258,0.316831714 25.9716455,0.21575 25.8197169,0.21575 L24.3310034,0.21575 C24.1788878,0.21575 24.094135,0.316831714 24.094135,0.498354837 L24.094135,10.9331452 C24.094135,11.1148914 24.1788878,11.21575 24.3310034,11.21575 L28.5090871,11.21575" id="path20" transform="translate(28.094135, 5.715750) scale(-1, 1) rotate(-180.000000) translate(-28.094135, -5.715750) "></path>
                <path d="M41.8576473,11.21575 C42.009242,11.21575 42.094135,11.1151146 42.094135,10.9333683 L42.094135,0.498577975 C42.094135,0.316831714 42.009242,0.21575 41.8576473,0.21575 L40.3720197,0.21575 C40.2208915,0.21575 40.1359985,0.316831714 40.1359985,0.498577975 L40.1359985,9.01599545 L36.0518051,9.01599545 L36.0518051,0.498577975 C36.0518051,0.316831714 35.9673786,0.21575 35.8157839,0.21575 L34.3306227,0.21575 C34.1785616,0.21575 34.094135,0.316831714 34.094135,0.498577975 L34.094135,10.9333683 C34.094135,11.1151146 34.1785616,11.21575 34.3306227,11.21575 L41.8576473,11.21575" id="path22" transform="translate(38.094135, 5.715750) scale(-1, 1) rotate(-180.000000) translate(-38.094135, -5.715750) "></path>
                <path d="M47.3400833,5.7059141 C47.3400833,3.7647472 48.6835138,2.35341806 50.6031549,2.35341806 C52.5042257,2.35341806 53.8481867,3.7647472 53.8481867,5.7059141 C53.8481867,7.68626202 52.5042257,9.07829871 50.6031549,9.07829871 C48.6835138,9.07829871 47.3400833,7.68626202 47.3400833,5.7059141 M50.6031549,11.21575 C53.6173841,11.21575 56.094135,8.84315848 56.094135,5.7059141 C56.094135,2.54921471 53.6173841,0.21575 50.6031549,0.21575 C47.5703554,0.21575 45.094135,2.54921471 45.094135,5.7059141 C45.094135,8.84315848 47.5703554,11.21575 50.6031549,11.21575" id="path24" transform="translate(50.594135, 5.715750) scale(-1, 1) rotate(-180.000000) translate(-50.594135, -5.715750) "></path>
                <path d="M63.5109768,2.41572769 L63.5109768,10.9335914 C63.5109768,11.1148914 63.6055299,11.21575 63.7773013,11.21575 L65.411494,11.21575 C65.5827402,11.21575 65.6778185,11.1148914 65.6778185,10.9335914 L65.6778185,2.41572769 L68.9278185,2.41572769 L68.9278185,10.9335914 C68.9278185,11.1148914 69.0223716,11.21575 69.1936178,11.21575 L70.8283358,11.21575 C70.9995819,11.21575 71.094135,11.1148914 71.094135,10.9335914 L71.094135,0.498577975 C71.094135,0.316831714 70.9995819,0.21575 70.8283358,0.21575 L58.3604596,0.21575 C58.2275599,0.21575 58.094135,0.316831714 58.094135,0.498577975 L58.094135,10.9335914 C58.094135,11.1148914 58.1886881,11.21575 58.3604596,11.21575 L59.9946522,11.21575 C60.1658984,11.21575 60.2609768,11.1148914 60.2609768,10.9335914 L60.2609768,2.41572769 L63.5109768,2.41572769" id="path26" transform="translate(64.594135, 5.715750) scale(-1, 1) rotate(-180.000000) translate(-64.594135, -5.715750) "></path>
                <path d="M81.8098973,11.21575 C81.9918993,11.21575 82.094135,11.1151146 82.094135,10.9333683 L82.094135,9.27835048 C82.094135,9.09660421 81.9918993,8.99591299 81.8098973,8.99591299 L78.273216,8.99591299 L78.273216,0.498577975 C78.273216,0.316831714 78.1709803,0.21575 77.9884166,0.21575 L76.1998535,0.21575 C76.0172897,0.21575 75.9156158,0.316831714 75.9156158,0.498577975 L75.9156158,8.99591299 L72.3789345,8.99591299 C72.1963707,8.99591299 72.094135,9.09660421 72.094135,9.27835048 L72.094135,10.9333683 C72.094135,11.1151146 72.1963707,11.21575 72.3789345,11.21575 L81.8098973,11.21575" id="path28" transform="translate(77.094135, 5.715750) scale(-1, 1) rotate(-180.000000) translate(-77.094135, -5.715750) "></path>
                <path d="M85.2153212,4.51462366 L88.996378,4.51462366 L87.2455628,9.03557585 L87.0266422,9.03557585 L85.2153212,4.51462366 Z M89.7928532,2.39547787 L84.3792423,2.39547787 L83.623471,0.458078348 C83.5640654,0.296358762 83.4447041,0.21575 83.2851891,0.21575 L81.3149031,0.21575 C81.1163344,0.21575 81.0563787,0.316831714 81.1163344,0.498354837 L85.8126776,11.0540862 C85.8522813,11.1551679 85.9320389,11.21575 86.071752,11.21575 L88.3401661,11.21575 C88.4793292,11.21575 88.5590868,11.1551679 88.5986905,11.0540862 L93.0766631,0.538910249 C93.1366188,0.376967524 93.0370594,0.21575 92.8577424,0.21575 L90.967214,0.21575 C90.7686453,0.21575 90.6283821,0.316831714 90.5491746,0.498354837 L89.7928532,2.39547787" id="path30" transform="translate(87.094135, 5.715750) scale(-1, 1) rotate(-180.000000) translate(-87.094135, -5.715750) "></path>
            </g>
        </g>
    </g>
</svg>