<svg xmlns="http://www.w3.org/2000/svg" x="0px" y="0px" width="128px" height="128px" viewBox="0 0 128 128" enable-background="new 0 0 128 128">
  <path fill="#E62E04" d="M10,0C4.477,0,0,4.477,0,10v108c0,5.523,4.477,10,10,10h108c5.521,0,10-4.477,10-10V10	c0-5.523-4.479-10-10-10H10z"/>
  <path fill="#B32100" d="M35.178,42.903c0.489,2.021,0.213,4.157,0.695,6.194c1.68-1.23,2.781-3.261,2.57-5.374	c-0.035-3.783-4.291-6.749-7.853-5.476c-2.239,0.64-3.896,2.649-4.271,4.921c-0.448,2.623,1.114,5.26,3.435,6.448	c-0.229-2.238-0.768-4.579-0.166-6.792C30.509,40.435,34.329,40.481,35.178,42.903z"/>
  <path fill="#B32100" d="M101.456,45.616c0.817-2.936-0.959-6.338-3.871-7.281c-2.78-1.099-6.267,0.301-7.501,3.029	c-1.376,2.526-0.543,6.119,1.973,7.598c0.496-2.027,0.129-4.179,0.721-6.17c0.94-2.353,4.711-2.287,5.568,0.097	c0.547,2.131,0.053,4.372-0.154,6.524C99.9,48.885,100.966,47.253,101.456,45.616z"/>
  <path fill="#FFF" d="M92.777,42.791c-0.592,1.991-0.226,4.143-0.723,6.17c-1.464,8.781-7.357,16.664-15.334,20.606	C68.833,73.616,59,73.613,51.124,69.534c-7.903-3.932-13.75-11.73-15.251-20.436c-0.482-2.036-0.207-4.173-0.695-6.194	c-0.849-2.422-4.669-2.469-5.589-0.079c-0.602,2.213-0.063,4.554,0.166,6.792c1.68,10.881,8.959,20.65,18.823,25.5	c9.021,4.533,20.042,4.779,29.27,0.693c10.666-4.606,18.641-14.892,20.346-26.397c0.207-2.152,0.701-4.394,0.152-6.524	C97.488,40.504,93.718,40.438,92.777,42.791z"/>
  <path fill="#FFF" d="M34.568,91.824c1.456,0.281,2.623,1.367,2.794,2.878c0.201-1.499,1.338-2.601,2.81-2.858	c-1.55-0.165-2.682-1.417-2.805-2.952C37.227,90.412,36.116,91.671,34.568,91.824z"/>
  <path fill="#FFF" d="M22.947,90.955c-1.863,5.012-3.839,9.984-5.708,14.993c0.635-0.035,1.272-0.051,1.907-0.046	c0.402-1.214,0.887-2.396,1.364-3.579c2.307,0.007,4.615-0.005,6.921,0.007c0.457,1.193,0.938,2.376,1.356,3.582	c0.635-0.005,1.27,0,1.902,0.024c-1.826-4.787-3.674-9.565-5.486-14.356C24.974,90.547,23.699,91.054,22.947,90.955z M26.665,100.347c-1.801,0.019-3.598,0.023-5.398-0.005c0.885-2.333,1.708-4.693,2.718-6.976	C24.908,95.682,25.785,98.015,26.665,100.347z"/>
  <path fill="#FFF" d="M31.797,105.938c0.643-0.02,1.282-0.024,1.924-0.018c-0.021-4.99-0.015-9.976-0.004-14.961	c-0.638,0.003-1.275,0-1.913-0.015C31.789,95.942,31.802,100.942,31.797,105.938z"/>
  <path fill="#FFF" d="M41.016,90.878c0.005,5.012,0.01,10.025-0.002,15.037c3.159,0.031,6.321,0.008,9.479,0.013	c-0.035-0.66-0.038-1.32-0.017-1.98c-2.497,0.008-4.993,0.013-7.486,0c-0.01-1.559-0.01-3.113,0-4.668	c2.057-0.016,4.112-0.003,6.169-0.008c-0.007-0.617-0.002-1.234,0.013-1.852c-2.055-0.025-4.11-0.025-6.163,0.002	c-0.038-1.53-0.033-3.057-0.022-4.587c2.309-0.023,4.62-0.02,6.93,0c-0.021-0.658,0-1.318,0.051-1.973	C46.984,90.858,43.999,90.83,41.016,90.878z"/>
  <path fill="#FFF" d="M62.871,99.557c-0.252,3.987-0.059,7.998-0.099,11.996c0.627-0.007,1.257-0.007,1.887,0	c0.015-2.322-0.003-4.645,0.007-6.968c2.168,2.104,5.893,2.188,7.92-0.15c2.365-2.376,1.893-6.749-0.934-8.562	C68.486,93.494,63.378,95.628,62.871,99.557z M72.016,101.823c-0.656,2.496-4.104,3.487-5.994,1.73	c-2.293-1.851-1.449-6.124,1.506-6.754C70.382,95.944,73.049,99.108,72.016,101.823z"/>
  <path fill="#FFF" d="M81.199,96.681c-0.002-0.62,0-1.238,0.01-1.857c-1.376,0.048-2.663,0.563-3.758,1.384	c-0.016-0.354-0.03-0.706-0.043-1.056c-0.625,0.008-1.246,0.005-1.872-0.008c-0.021,3.598-0.022,7.195,0.003,10.79	c0.63-0.008,1.26-0.01,1.891-0.003c0.064-2.021-0.104-4.054,0.088-6.069C77.762,98.048,79.463,96.847,81.199,96.681z"/>
  <path fill="#FFF" d="M91.65,97.538c-1.014-1.977-3.42-3.052-5.576-2.534c-2.573,0.478-4.563,2.963-4.473,5.579	c-0.008,2.667,2.088,5.129,4.719,5.553c1.959,0.403,3.992-0.426,5.272-1.922c-0.472-0.342-0.933-0.699-1.379-1.074	c-2.01,2.292-6.007,1.29-6.731-1.654c2.926-0.03,5.85,0.018,8.773-0.025C92.262,100.138,92.325,98.731,91.65,97.538z M83.453,99.649	c0.486-1.59,1.904-2.935,3.636-2.899c1.679-0.089,3.065,1.308,3.3,2.909C88.075,99.69,85.764,99.705,83.453,99.649z"/>
  <path fill="#FFF" d="M98.659,104.223c-1.479,0.778-3.243,0.136-4.31-1.029c-0.457,0.392-0.931,0.762-1.412,1.127	c1.742,1.889,4.733,2.531,7.002,1.224c1.766-0.941,2.084-3.793,0.449-5.005c-1.416-1.051-3.377-0.798-4.82-1.787	c-0.81-0.63-0.146-1.79,0.673-2.019c1.274-0.568,2.639,0.068,3.563,0.976c0.355-0.367,1.238-0.518,1.178-1.099	c-1.506-2.099-4.857-2.303-6.728-0.587c-1.149,1.063-1.167,3.197,0.136,4.146c1.373,1.005,3.243,0.803,4.65,1.726	C99.854,102.489,99.557,103.868,98.659,104.223z"/>
  <path fill="#FFF" d="M108.021,104.188c-1.482,0.836-3.269,0.171-4.381-0.965c-0.455,0.35-0.91,0.694-1.373,1.03	c1.666,2.04,4.807,2.578,7.063,1.239c1.67-0.964,1.955-3.664,0.444-4.891c-1.438-1.149-3.52-0.828-4.985-1.917	c-0.72-0.688,0.026-1.776,0.829-1.983c1.257-0.516,2.568,0.115,3.479,0.992c0.442-0.329,0.903-0.636,1.375-0.924	c-1.476-2.03-4.535-2.521-6.563-1.039c-1.426,0.936-1.674,3.309-0.279,4.383c1.338,1.05,3.199,0.863,4.629,1.721	C109.122,102.369,108.926,103.799,108.021,104.188z"/>
  <path fill="#FFF" d="M38.326,105.926c-0.01-3.563-0.012-7.126,0.003-10.688c-0.643,0.013-1.283,0.01-1.925-0.007	c0.01,3.566,0.005,7.136,0.005,10.702C37.046,105.918,37.687,105.916,38.326,105.926z"/>
  <path fill="#FFF" d="M53.613,105.91c0.984-1.318,1.966-2.639,3.031-3.892c1,1.292,1.999,2.591,2.982,3.896	c0.753,0.003,1.505,0.005,2.259,0.013c-1.33-1.817-2.74-3.574-4.104-5.363c1.331-1.815,2.764-3.558,4.09-5.375	c-0.74,0-1.505-0.112-2.229,0.084c-1.121,1.18-1.966,2.595-3.049,3.813c-0.877-1.117-1.716-2.261-2.593-3.381	c-0.571-0.884-1.764-0.444-2.636-0.515c1.32,1.822,2.751,3.559,4.086,5.371c-1.369,1.787-2.784,3.541-4.102,5.367	C52.104,105.923,52.859,105.916,53.613,105.91z"/>
  <path fill="#F90" d="M10,0C4.477,0,0,4.477,0,10v19c0-5.523,4.477-10,10-10h108c5.521,0,10,4.477,10,10V10	c0-5.523-4.479-10-10-10H10z"/>
</svg>
